<svg xmlns="http://www.w3.org/2000/svg" xmlns:xlink="http://www.w3.org/1999/xlink" width="300.929" height="220.536" viewBox="0 0 300.929 220.536">
  <defs>
    <linearGradient id="linear-gradient" x1="0.5" x2="0.5" y2="1" gradientUnits="objectBoundingBox">
      <stop offset="0" stop-color="#e1ddf8"/>
      <stop offset="1" stop-color="#fff"/>
    </linearGradient>
  </defs>
  <g id="cloud_background" data-name="cloud background" transform="translate(54.463 -275.228)">
    <path id="Path_153" data-name="Path 153" d="M124.665,216.975a11.461,11.461,0,0,1,8.219,3.461,14.116,14.116,0,0,1,12.538-8.677,26.582,26.582,0,0,1,51.423-7.7,17.957,17.957,0,0,1,17.286,13.961,11.5,11.5,0,1,1,4.8,21.944H124.665a11.5,11.5,0,1,1,0-22.993Zm0,0" transform="translate(-1.836 88.42)" fill="url(#linear-gradient)"/>
    <path id="Path_155" data-name="Path 155" d="M289.454,322.568H275.793a14.589,14.589,0,0,0-14.329-11.149,15.155,15.155,0,0,0-3.706.459,25.125,25.125,0,0,0-47.533,2.757,9.9,9.9,0,0,0-5.136-1.43,9.6,9.6,0,0,0-9.732,9.363H157.666a14.724,14.724,0,0,0-13.254-8.116,14.887,14.887,0,0,0-9.719,3.572,20.159,20.159,0,0,0-39.164-3.054A21.29,21.29,0,0,0,76.9,303.755a31.409,31.409,0,0,0-29.431-19.786c-16.707,0-30.366,12.648-31.362,28.614a16.181,16.181,0,1,0,.581,32.354c5.044,0,272.772-.1,272.772-.1a11.138,11.138,0,1,0,0-22.266Zm0,0" transform="translate(-54.463 150.827)" fill="url(#linear-gradient)"/>
  </g>
</svg>
