<svg id="cryptocurrency-transaction-history" xmlns="http://www.w3.org/2000/svg" xmlns:xlink="http://www.w3.org/1999/xlink" width="25.432" height="25.433" viewBox="0 0 25.432 25.433">
  <defs>
    <linearGradient id="linear-gradient" y1="0.466" x2="1" y2="0.471" gradientUnits="objectBoundingBox">
      <stop offset="0" stop-color="#0057dc"/>
      <stop offset="0.202" stop-color="#036fe6"/>
      <stop offset="0.537" stop-color="#0890f3"/>
      <stop offset="0.815" stop-color="#0ba5fc"/>
      <stop offset="1" stop-color="#0cacff"/>
    </linearGradient>
  </defs>
  <path id="Path_163" data-name="Path 163" d="M60.663,69.24A8.964,8.964,0,1,0,51.7,60.276,8.964,8.964,0,0,0,60.663,69.24Zm-3.73-8.924V55.253a.439.439,0,0,1,.439-.439h1.435V53.5a.439.439,0,1,1,.878,0v1.31H61.2V53.5a.439.439,0,1,1,.878,0v1.385a2.969,2.969,0,0,1,.893,5.427,2.969,2.969,0,0,1-.894,5.427v1.306a.439.439,0,1,1-.878,0V65.817H59.684v1.232a.439.439,0,0,1-.878,0V65.817H57.372a.439.439,0,0,1-.439-.439Zm0,0" transform="translate(-47.947 -47.56)" fill="url(#linear-gradient)"/>
  <path id="Path_164" data-name="Path 164" d="M140.974,182.515a2.1,2.1,0,0,0-2.092-2.093H135.27v4.185h3.612A2.1,2.1,0,0,0,140.974,182.515Zm0,0" transform="translate(-125.406 -167.228)" fill="url(#linear-gradient)"/>
  <path id="Path_165" data-name="Path 165" d="M140.974,113.284a2.1,2.1,0,0,0-2.092-2.093H135.27v4.185h3.612A2.1,2.1,0,0,0,140.974,113.284Zm0,0" transform="translate(-125.406 -103.06)" fill="url(#linear-gradient)"/>
  <path id="Path_166" data-name="Path 166" d="M1.307,13.155H.387A12.675,12.675,0,0,0,3.8,21.393l.647-.647a.439.439,0,0,1,.621.621l-.647.647a12.677,12.677,0,0,0,8.238,3.418v-.92a.439.439,0,1,1,.878,0v.921a12.677,12.677,0,0,0,8.239-3.419l-.647-.647a.439.439,0,1,1,.621-.62l.646.647a12.678,12.678,0,0,0,3.419-8.239H24.9a.439.439,0,1,1,0-.878h.92A12.678,12.678,0,0,0,22.4,4.039l-.647.647a.439.439,0,0,1-.62-.621l.646-.647A12.678,12.678,0,0,0,13.542,0V.92a.439.439,0,0,1-.878,0V0A12.678,12.678,0,0,0,4.426,3.418l.647.647a.439.439,0,0,1-.621.621L3.8,4.039A12.675,12.675,0,0,0,.387,12.278h.92a.439.439,0,1,1,0,.878ZM13.1,2.875a9.841,9.841,0,1,1-9.841,9.841A9.853,9.853,0,0,1,13.1,2.875Zm0,0" transform="translate(-0.387 0)" fill="url(#linear-gradient)"/>
</svg>
