<svg xmlns="http://www.w3.org/2000/svg" xmlns:xlink="http://www.w3.org/1999/xlink" width="287.7" height="196.3" viewBox="0 0 287.7 196.3">
  <defs>
    <linearGradient id="linear-gradient" x1="-0.076" y1="0.5" x2="0.847" y2="0.5" gradientUnits="objectBoundingBox">
      <stop offset="0" stop-color="#295aa1"/>
      <stop offset="0.204" stop-color="#3659a0"/>
      <stop offset="0.526" stop-color="#5256a0"/>
      <stop offset="0.924" stop-color="#7351a0"/>
      <stop offset="1" stop-color="#7950a0"/>
    </linearGradient>
  </defs>
  <path id="eth-usd-bar-chart" d="M0,196.3H287.7V0s-1.3,1-2.6,8.6c0,0-1.6.4-2.3,9.9,0,0-4.7,3.9-6.4,22.4,0,0-5.4-15.1-10.8,26.6,0,0-6.4-15.2-7.3-2.1l-4.6,66.4s-6.7-.6-7.6,8.9c0,0-2.8,15.2-2.1,15.4s-3.4.2-3.9,7.7h-9.6V152s-2.1-4.3-3.4-2.1l-1.3,11.6s-4.1-4.1-3.2-25.3c0,0-4.5-5.4-5.6,7.1l-1.7-.2-1.5-7.5-2.6,7.9-2.4-.2-.2-7.1s-6-3.9-9.2,5.6c0,0-1.7-.4-1.7-4.5l-2.1-24.6s-2.8-9.9-8.1-8.6l-6.2-10.7-.6,9.4s-6.4.9-6.6-2.4l-.9-10.9-2.1,3.2L169,78.4,164.3,102h-1.7l-3.2-60.2a2.065,2.065,0,0,0-2-1.7,1.887,1.887,0,0,0-2,1.3L151,70.7l-1.5.2-1.3,41.6-2.4.4s.4-11.8-6.2-16.1l-1.3,51.4h-8.1s-3.2,4.7-7.5.2l-4.1.2s-5.8-54-4.5-68.8c0,0-4.3-3-4.5,10.9l-1.3,27.4-1.5-30.4s-1.9.2-3.4,7.5c0,0-2.1-17.1-5.4-19.9,0,0,1.2-21.2-.2-26.4-.3-1-3.4,1-4.3.4-1.5-1-2.6-6.8-2.6-6.8s-4.3,11.1-3.6,27a138.18,138.18,0,0,1-3.4-27.2c-.2-14.1-1.5-27.3-4.3-27.5,0,0-3,20.6-1.9,39.6,0,0-1.9-4.1-2.1,4.1L74.5,83.6s-1.1,5.4-5.6,3.2L67.4,48a6.689,6.689,0,0,0-4.9,6s-4.3-1.3-3.6,14.4l-2.1,1.1V84.3h-3L51.4,10.2A2.336,2.336,0,0,0,49.1,9a3.046,3.046,0,0,0-2.3,1.1L46,51a5.291,5.291,0,0,0-4.4,2.6s-3.9-3.7-5.9.6L33.4,22.8s-.2-.5-1.1-.5a.925.925,0,0,0-.9.5l-.3,25.9-2,.1L29,37.3s-4.1-2.5-4.1,9.9H23l-.9-22.4s-.2-.6-1.2-.6c-1.1,0-1.1.6-1.1.6L17.5,56.7s-5.1,1-4.1,37l-4,81.6S5.7,179,4.3,175L3.2,136.7s-.1-1-1-1c-.7,0-.8,1-.8,1Z" fill="url(#linear-gradient)"/>
</svg>
