<svg xmlns="http://www.w3.org/2000/svg" xmlns:xlink="http://www.w3.org/1999/xlink" width="29.554" height="32.584" viewBox="0 0 29.554 32.584">
  <defs>
    <linearGradient id="linear-gradient" x1="0.5" x2="0.5" y2="1" gradientUnits="objectBoundingBox">
      <stop offset="0" stop-color="#0057dc"/>
      <stop offset="0.202" stop-color="#036fe6"/>
      <stop offset="0.537" stop-color="#0890f3"/>
      <stop offset="0.815" stop-color="#0ba5fc"/>
      <stop offset="1" stop-color="#0cacff"/>
    </linearGradient>
  </defs>
  <g id="first-prize" transform="translate(-2.185)">
    <g id="no-1-star" transform="translate(2.185)">
      <g id="Group_59" data-name="Group 59">
        <path id="Path_106" data-name="Path 106" d="M31.17,27l-3.789-3.031a1.508,1.508,0,0,0-.946-.332H24.323l.27,1.676a2.274,2.274,0,0,1-3.356,2.344l-4.276-2.4-4.276,2.4a2.273,2.273,0,0,1-3.355-2.344l.27-1.676H7.489a1.516,1.516,0,0,0-.947.332L2.754,27a1.517,1.517,0,0,0-.569,1.183V38.317A1.516,1.516,0,0,0,3.7,39.833H30.223a1.517,1.517,0,0,0,1.516-1.516V28.182A1.516,1.516,0,0,0,31.17,27Zm-3.978,8.145a.757.757,0,0,1-.757.758H7.489a.758.758,0,0,1-.758-.758V31.356a.758.758,0,0,1,.758-.758H26.433a.758.758,0,0,1,.758.758v3.789Z" transform="translate(-2.185 -7.249)" fill="url(#linear-gradient)"/>
        <path id="Path_107" data-name="Path 107" d="M14.142,12.287,13.174,18.3a.758.758,0,0,0,1.118.781l5.016-2.81,5.016,2.81a.747.747,0,0,0,.37.1.757.757,0,0,0,.748-.877l-.969-6.017,4.1-4.255a.758.758,0,0,0-.43-1.274l-5.621-.873L20,.44a.758.758,0,0,0-1.375,0L16.1,5.886l-5.621.871a.758.758,0,0,0-.43,1.274Zm3.336-4.5L17.9,7.7c1.267-.275.913-1.574,1.884-1.574.365,0,.661.157.661.774v6.484c0,.593-.229,1-.867,1s-.867-.41-.867-1V9.044H17.239c-.376,0-.582-.136-.582-.6C16.655,8.017,16.884,7.9,17.478,7.788Z" transform="translate(-4.532)" fill="#ffbb03"/>
      </g>
    </g>
  </g>
</svg>
