<svg xmlns="http://www.w3.org/2000/svg" xmlns:xlink="http://www.w3.org/1999/xlink" width="305.607" height="268.917" viewBox="0 0 305.607 268.917">
  <defs>
    <filter id="Graph_Border" x="0" y="0" width="305.607" height="268.917" filterUnits="userSpaceOnUse">
      <feOffset dy="3" input="SourceAlpha"/>
      <feGaussianBlur stdDeviation="3" result="blur"/>
      <feFlood flood-color="#0065ff" flood-opacity="0.161"/>
      <feComposite operator="in" in2="blur"/>
      <feComposite in="SourceGraphic"/>
    </filter>
  </defs>
  <g transform="matrix(1, 0, 0, 1, 0, 0)" filter="url(#Graph_Border)">
    <path id="Graph_Border-2" data-name="Graph Border" d="M131,465l5-10,5-25,5,5,5-5,5,5,5,50,5-15,5-20,5,7.925L181,440l5,20,5,30,5-25,5-5,5,35,5-10,5-10,5,15,5,30,5-10,5,10,5,10,5,15h5l5,5h5l5,10,5-5,5-20,5,15,5,70,5-5,5-40,5,5,5,30,5-5,5-5,5,25,5,5,5,10,5,25,5-5,5,15,5-25,5-5,5-15,5-5,5,15h5l5-5,5-10,5-15,5-5,5-10,5-5h5l5-15" transform="translate(-120.66 -421.97)" fill="none" stroke="#036fe6" stroke-linecap="round" stroke-width="2"/>
  </g>
</svg>
