<svg xmlns="http://www.w3.org/2000/svg" xmlns:xlink="http://www.w3.org/1999/xlink" width="42" height="52" viewBox="0 0 42 52">
  <defs>
    <linearGradient id="linear-gradient" x1="-0.331" y1="0.5" x2="1.203" y2="0.451" gradientUnits="objectBoundingBox">
      <stop offset="0" stop-color="#0057dc"/>
      <stop offset="0.202" stop-color="#036fe6"/>
      <stop offset="0.537" stop-color="#0890f3"/>
      <stop offset="0.815" stop-color="#0ba5fc"/>
      <stop offset="1" stop-color="#0cacff"/>
    </linearGradient>
  </defs>
  <g id="locked_2_" data-name="locked (2)" transform="translate(-5)">
    <path id="Path_192" data-name="Path 192" d="M40.771,52H11.229A6.229,6.229,0,0,1,5,45.771V26.229A6.229,6.229,0,0,1,11.229,20H40.771A6.229,6.229,0,0,1,47,26.229V45.771A6.229,6.229,0,0,1,40.771,52Z" fill="url(#linear-gradient)"/>
    <path id="Path_193" data-name="Path 193" d="M40.771,20H26V52H40.771A6.229,6.229,0,0,0,47,45.771V26.229A6.229,6.229,0,0,0,40.771,20Z" fill="#036fe6"/>
    <path id="Path_194" data-name="Path 194" d="M26,40h0a3.009,3.009,0,0,1-3-3V31a3.009,3.009,0,0,1,3-3h0a3.009,3.009,0,0,1,3,3v6A3.009,3.009,0,0,1,26,40Z" fill="#f5f6fa"/>
    <path id="Path_195" data-name="Path 195" d="M11.229,20H15V13.5C15,8.262,19.935,4,26,4s11,4.262,11,9.5V20h3.771c.077,0,.152.009.229.011V13.5C41,6.075,34.25,0,26,0S11,6.075,11,13.5v6.511C11.077,20.009,11.152,20,11.229,20Z" fill="#9a9cb8"/>
  </g>
</svg>
