<svg xmlns="http://www.w3.org/2000/svg" xmlns:xlink="http://www.w3.org/1999/xlink" width="75.309" height="80.084" viewBox="0 0 75.309 80.084">
  <defs>
    <linearGradient id="linear-gradient" y1="0.5" x2="1" y2="0.5" gradientUnits="objectBoundingBox">
      <stop offset="0" stop-color="#0057dc"/>
      <stop offset="0.202" stop-color="#036fe6"/>
      <stop offset="0.537" stop-color="#0890f3"/>
      <stop offset="0.815" stop-color="#0ba5fc"/>
      <stop offset="1" stop-color="#0cacff"/>
    </linearGradient>
    <linearGradient id="linear-gradient-2" x1="0" y1="0.5" x2="1" y2="0.5" xlink:href="#linear-gradient"/>
    <linearGradient id="linear-gradient-3" x1="0" y1="0.5" x2="1" y2="0.5" xlink:href="#linear-gradient"/>
    <linearGradient id="linear-gradient-4" x1="0" y1="0.5" x2="1" y2="0.5" xlink:href="#linear-gradient"/>
  </defs>
  <g id="nguvu_logo" data-name="nguvu logo" transform="translate(0.005)">
    <g id="Group_1632" data-name="Group 1632" transform="translate(28.488 6.053)">
      <path id="Path_3130" data-name="Path 3130" d="M832.09,74.861h-2.718a.774.774,0,0,1-.772-.772V71.372a.774.774,0,0,1,.772-.772h2.718a.774.774,0,0,1,.772.772V74.09A.768.768,0,0,1,832.09,74.861ZM829.372,71a.381.381,0,0,0-.377.377V74.1a.381.381,0,0,0,.377.377h2.718a.381.381,0,0,0,.377-.377V71.372a.381.381,0,0,0-.377-.377h-2.718Z" transform="translate(-786.046 -70.6)" fill="#0c1011"/>
      <path id="Path_3131" data-name="Path 3131" d="M776.89,74.861h-2.718a.774.774,0,0,1-.772-.772V71.372a.774.774,0,0,1,.772-.772h2.718a.774.774,0,0,1,.772.772V74.09A.763.763,0,0,1,776.89,74.861ZM774.18,71a.381.381,0,0,0-.377.377V74.1a.381.381,0,0,0,.377.377H776.9a.381.381,0,0,0,.377-.377V71.372a.381.381,0,0,0-.377-.377H774.18Z" transform="translate(-735.578 -70.6)" fill="#0c1011"/>
      <path id="Path_3132" data-name="Path 3132" d="M721.79,74.861h-2.718a.774.774,0,0,1-.772-.772V71.372a.774.774,0,0,1,.772-.772h2.718a.774.774,0,0,1,.772.772V74.09A.768.768,0,0,1,721.79,74.861ZM719.072,71a.381.381,0,0,0-.377.377V74.1a.381.381,0,0,0,.377.377h2.718a.381.381,0,0,0,.377-.377V71.372a.381.381,0,0,0-.377-.377h-2.718Z" transform="translate(-685.203 -70.6)" fill="#0c1011"/>
      <path id="Path_3133" data-name="Path 3133" d="M666.59,74.861h-2.718a.774.774,0,0,1-.772-.772V71.372a.774.774,0,0,1,.772-.772h2.718a.774.774,0,0,1,.772.772V74.09A.763.763,0,0,1,666.59,74.861ZM663.88,71a.381.381,0,0,0-.377.377V74.1a.381.381,0,0,0,.377.377H666.6a.381.381,0,0,0,.377-.377V71.372a.381.381,0,0,0-.377-.377H663.88Z" transform="translate(-634.736 -70.6)" fill="#0c1011"/>
      <path id="Path_3134" data-name="Path 3134" d="M611.49,74.861h-2.718A.774.774,0,0,1,608,74.09V71.372a.774.774,0,0,1,.772-.772h2.718a.774.774,0,0,1,.772.772V74.09A.768.768,0,0,1,611.49,74.861ZM608.772,71a.381.381,0,0,0-.377.377V74.1a.381.381,0,0,0,.377.377h2.718a.381.381,0,0,0,.377-.377V71.372a.381.381,0,0,0-.377-.377h-2.718Z" transform="translate(-584.361 -70.6)" fill="#0c1011"/>
      <path id="Path_3135" data-name="Path 3135" d="M611.49,130.161h-2.718a.774.774,0,0,1-.772-.772v-2.718a.774.774,0,0,1,.772-.772h2.718a.774.774,0,0,1,.772.772v2.718A.768.768,0,0,1,611.49,130.161Zm-2.718-3.858a.381.381,0,0,0-.377.377V129.4a.381.381,0,0,0,.377.377h2.718a.381.381,0,0,0,.377-.377V126.68a.381.381,0,0,0-.377-.377Z" transform="translate(-584.361 -121.158)" fill="#0c1011"/>
      <path id="Path_3136" data-name="Path 3136" d="M611.49,184.27h-2.718A.774.774,0,0,1,608,183.5v-2.727a.774.774,0,0,1,.772-.772h2.718a.774.774,0,0,1,.772.772v2.718A.776.776,0,0,1,611.49,184.27Zm-2.718-3.867a.381.381,0,0,0-.377.377V183.5a.381.381,0,0,0,.377.377h2.718a.381.381,0,0,0,.377-.377v-2.727a.381.381,0,0,0-.377-.377h-2.718Z" transform="translate(-584.361 -170.62)" fill="#0c1011"/>
      <path id="Path_3137" data-name="Path 3137" d="M611.49,238.461h-2.718a.774.774,0,0,1-.772-.772v-2.718a.774.774,0,0,1,.772-.772h2.718a.774.774,0,0,1,.772.772v2.718A.774.774,0,0,1,611.49,238.461Zm-2.718-3.867a.381.381,0,0,0-.377.377v2.718a.381.381,0,0,0,.377.377h2.718a.381.381,0,0,0,.377-.377v-2.718a.381.381,0,0,0-.377-.377Z" transform="translate(-584.361 -220.172)" fill="#0c1011"/>
      <path id="Path_3138" data-name="Path 3138" d="M611.49,292.561h-2.718a.774.774,0,0,1-.772-.772v-2.718a.774.774,0,0,1,.772-.772h2.718a.774.774,0,0,1,.772.772v2.718A.768.768,0,0,1,611.49,292.561Zm-2.718-3.867a.381.381,0,0,0-.377.377v2.718a.381.381,0,0,0,.377.377h2.718a.381.381,0,0,0,.377-.377v-2.718a.381.381,0,0,0-.377-.377Z" transform="translate(-584.361 -269.634)" fill="#0c1011"/>
      <path id="Path_3139" data-name="Path 3139" d="M611.49,346.661h-2.718a.774.774,0,0,1-.772-.772v-2.718a.774.774,0,0,1,.772-.772h2.718a.774.774,0,0,1,.772.772v2.718A.768.768,0,0,1,611.49,346.661Zm-2.718-3.858a.381.381,0,0,0-.377.377V345.9a.381.381,0,0,0,.377.377h2.718a.381.381,0,0,0,.377-.377V343.18a.381.381,0,0,0-.377-.377Z" transform="translate(-584.361 -319.095)" fill="#0c1011"/>
      <path id="Path_3140" data-name="Path 3140" d="M832.09,347.961h-2.718a.774.774,0,0,1-.772-.772v-2.718a.774.774,0,0,1,.772-.772h2.718a.774.774,0,0,1,.772.772v2.718A.768.768,0,0,1,832.09,347.961Zm-2.718-3.858a.381.381,0,0,0-.377.377V347.2a.381.381,0,0,0,.377.377h2.718a.381.381,0,0,0,.377-.377V344.48a.381.381,0,0,0-.377-.377Z" transform="translate(-786.046 -320.283)" fill="#0c1011"/>
      <path id="Path_3141" data-name="Path 3141" d="M776.89,347.961h-2.718a.774.774,0,0,1-.772-.772v-2.718a.774.774,0,0,1,.772-.772h2.718a.774.774,0,0,1,.772.772v2.718A.763.763,0,0,1,776.89,347.961Zm-2.71-3.858a.381.381,0,0,0-.377.377V347.2a.381.381,0,0,0,.377.377H776.9a.381.381,0,0,0,.377-.377V344.48a.381.381,0,0,0-.377-.377Z" transform="translate(-735.578 -320.283)" fill="#0c1011"/>
      <path id="Path_3142" data-name="Path 3142" d="M721.79,347.961h-2.718a.774.774,0,0,1-.772-.772v-2.718a.774.774,0,0,1,.772-.772h2.718a.774.774,0,0,1,.772.772v2.718A.768.768,0,0,1,721.79,347.961Zm-2.718-3.858a.381.381,0,0,0-.377.377V347.2a.381.381,0,0,0,.377.377h2.718a.381.381,0,0,0,.377-.377V344.48a.381.381,0,0,0-.377-.377Z" transform="translate(-685.203 -320.283)" fill="#0c1011"/>
      <path id="Path_3143" data-name="Path 3143" d="M666.59,347.961h-2.718a.774.774,0,0,1-.772-.772v-2.718a.774.774,0,0,1,.772-.772h2.718a.774.774,0,0,1,.772.772v2.718A.763.763,0,0,1,666.59,347.961ZM663.88,344.1a.381.381,0,0,0-.377.377V347.2a.381.381,0,0,0,.377.377H666.6a.381.381,0,0,0,.377-.377V344.48a.381.381,0,0,0-.377-.377Z" transform="translate(-634.736 -320.283)" fill="#0c1011"/>
      <path id="Path_3144" data-name="Path 3144" d="M611.49,400.861h-2.718a.774.774,0,0,1-.772-.772v-2.718a.774.774,0,0,1,.772-.772h2.718a.774.774,0,0,1,.772.772v2.718A.774.774,0,0,1,611.49,400.861Zm-2.718-3.867a.381.381,0,0,0-.377.377v2.718a.381.381,0,0,0,.377.377h2.718a.381.381,0,0,0,.377-.377v-2.718a.381.381,0,0,0-.377-.377Z" transform="translate(-584.361 -368.648)" fill="#0c1011"/>
      <path id="Path_3145" data-name="Path 3145" d="M611.49,454.961h-2.718a.774.774,0,0,1-.772-.772v-2.718a.774.774,0,0,1,.772-.772h2.718a.774.774,0,0,1,.772.772v2.718A.774.774,0,0,1,611.49,454.961Zm-2.718-3.867a.381.381,0,0,0-.377.377v2.718a.381.381,0,0,0,.377.377h2.718a.381.381,0,0,0,.377-.377v-2.718a.381.381,0,0,0-.377-.377Z" transform="translate(-584.361 -418.109)" fill="#0c1011"/>
      <path id="Path_3146" data-name="Path 3146" d="M611.49,509.061h-2.718a.774.774,0,0,1-.772-.772v-2.718a.774.774,0,0,1,.772-.772h2.718a.774.774,0,0,1,.772.772v2.718A.768.768,0,0,1,611.49,509.061Zm-2.718-3.858a.381.381,0,0,0-.377.377V508.3a.381.381,0,0,0,.377.377h2.718a.381.381,0,0,0,.377-.377V505.58a.381.381,0,0,0-.377-.377Z" transform="translate(-584.361 -467.57)" fill="#0c1011"/>
      <path id="Path_3147" data-name="Path 3147" d="M611.49,563.161h-2.718a.774.774,0,0,1-.772-.772v-2.718a.774.774,0,0,1,.772-.772h2.718a.774.774,0,0,1,.772.772v2.718A.768.768,0,0,1,611.49,563.161Zm-2.718-3.858a.381.381,0,0,0-.377.377V562.4a.381.381,0,0,0,.377.377h2.718a.381.381,0,0,0,.377-.377V559.68a.381.381,0,0,0-.377-.377Z" transform="translate(-584.361 -517.031)" fill="#0c1011"/>
      <path id="Path_3148" data-name="Path 3148" d="M335.79,346.661h-2.718a.774.774,0,0,1-.772-.772v-2.718a.774.774,0,0,1,.772-.772h2.718a.774.774,0,0,1,.772.772v2.718A.774.774,0,0,1,335.79,346.661Zm-2.718-3.858a.381.381,0,0,0-.377.377V345.9a.381.381,0,0,0,.377.377h2.718a.381.381,0,0,0,.377-.377V343.18a.381.381,0,0,0-.377-.377Z" transform="translate(-332.3 -319.095)" fill="#0c1011"/>
      <path id="Path_3149" data-name="Path 3149" d="M556.29,347.961h-2.718a.774.774,0,0,1-.772-.772v-2.718a.774.774,0,0,1,.772-.772h2.718a.774.774,0,0,1,.772.772v2.718A.763.763,0,0,1,556.29,347.961ZM553.58,344.1a.381.381,0,0,0-.377.377V347.2a.381.381,0,0,0,.377.377H556.3a.381.381,0,0,0,.377-.377V344.48a.381.381,0,0,0-.377-.377Z" transform="translate(-533.894 -320.283)" fill="#0c1011"/>
      <path id="Path_3150" data-name="Path 3150" d="M501.19,347.961h-2.718a.774.774,0,0,1-.772-.772v-2.718a.774.774,0,0,1,.772-.772h2.718a.774.774,0,0,1,.772.772v2.718A.768.768,0,0,1,501.19,347.961Zm-2.718-3.858a.381.381,0,0,0-.377.377V347.2a.381.381,0,0,0,.377.377h2.718a.381.381,0,0,0,.377-.377V344.48a.381.381,0,0,0-.377-.377Z" transform="translate(-483.518 -320.283)" fill="#0c1011"/>
      <path id="Path_3151" data-name="Path 3151" d="M446.09,347.961h-2.718a.774.774,0,0,1-.772-.772v-2.718a.774.774,0,0,1,.772-.772h2.718a.774.774,0,0,1,.772.772v2.718A.774.774,0,0,1,446.09,347.961Zm-2.718-3.858a.381.381,0,0,0-.377.377V347.2a.381.381,0,0,0,.377.377h2.718a.381.381,0,0,0,.377-.377V344.48a.381.381,0,0,0-.377-.377Z" transform="translate(-433.142 -320.283)" fill="#0c1011"/>
      <path id="Path_3152" data-name="Path 3152" d="M390.89,347.961h-2.718a.774.774,0,0,1-.772-.772v-2.718a.774.774,0,0,1,.772-.772h2.718a.774.774,0,0,1,.772.772v2.718A.768.768,0,0,1,390.89,347.961Zm-2.718-3.858a.381.381,0,0,0-.377.377V347.2a.381.381,0,0,0,.377.377h2.718a.381.381,0,0,0,.377-.377V344.48a.381.381,0,0,0-.377-.377Z" transform="translate(-382.676 -320.283)" fill="#0c1011"/>
      <path id="Path_3153" data-name="Path 3153" d="M335.79,400.861h-2.718a.774.774,0,0,1-.772-.772v-2.718a.774.774,0,0,1,.772-.772h2.718a.774.774,0,0,1,.772.772v2.718A.78.78,0,0,1,335.79,400.861Zm-2.718-3.867a.381.381,0,0,0-.377.377v2.718a.381.381,0,0,0,.377.377h2.718a.381.381,0,0,0,.377-.377v-2.718a.381.381,0,0,0-.377-.377Z" transform="translate(-332.3 -368.648)" fill="#0c1011"/>
      <path id="Path_3154" data-name="Path 3154" d="M335.79,454.961h-2.718a.774.774,0,0,1-.772-.772v-2.718a.774.774,0,0,1,.772-.772h2.718a.774.774,0,0,1,.772.772v2.718A.78.78,0,0,1,335.79,454.961Zm-2.718-3.867a.381.381,0,0,0-.377.377v2.718a.381.381,0,0,0,.377.377h2.718a.381.381,0,0,0,.377-.377v-2.718a.381.381,0,0,0-.377-.377Z" transform="translate(-332.3 -418.109)" fill="#0c1011"/>
      <path id="Path_3155" data-name="Path 3155" d="M335.79,509.061h-2.718a.774.774,0,0,1-.772-.772v-2.718a.774.774,0,0,1,.772-.772h2.718a.774.774,0,0,1,.772.772v2.718A.774.774,0,0,1,335.79,509.061Zm-2.718-3.858a.381.381,0,0,0-.377.377V508.3a.381.381,0,0,0,.377.377h2.718a.381.381,0,0,0,.377-.377V505.58a.381.381,0,0,0-.377-.377Z" transform="translate(-332.3 -467.57)" fill="#0c1011"/>
      <path id="Path_3156" data-name="Path 3156" d="M335.79,563.161h-2.718a.774.774,0,0,1-.772-.772v-2.718a.774.774,0,0,1,.772-.772h2.718a.774.774,0,0,1,.772.772v2.718A.774.774,0,0,1,335.79,563.161Zm-2.718-3.858a.381.381,0,0,0-.377.377V562.4a.381.381,0,0,0,.377.377h2.718a.381.381,0,0,0,.377-.377V559.68a.381.381,0,0,0-.377-.377Z" transform="translate(-332.3 -517.031)" fill="#0c1011"/>
    </g>
    <g id="Group_1633" data-name="Group 1633" transform="translate(4.84 52.569)">
      <path id="Path_3157" data-name="Path 3157" d="M611.49,617.361h-2.718a.774.774,0,0,1-.772-.772v-2.718a.774.774,0,0,1,.772-.772h2.718a.774.774,0,0,1,.772.772v2.718A.774.774,0,0,1,611.49,617.361Zm-2.718-3.867a.381.381,0,0,0-.377.377v2.718a.381.381,0,0,0,.377.377h2.718a.381.381,0,0,0,.377-.377v-2.718a.381.381,0,0,0-.377-.377Z" transform="translate(-560.712 -613.1)" fill="#0c1011"/>
      <path id="Path_3158" data-name="Path 3158" d="M832.09,618.661h-2.718a.774.774,0,0,1-.772-.772v-2.718a.774.774,0,0,1,.772-.772h2.718a.774.774,0,0,1,.772.772v2.709A.776.776,0,0,1,832.09,618.661Zm-2.718-3.867a.381.381,0,0,0-.377.377v2.709a.381.381,0,0,0,.377.377h2.718a.381.381,0,0,0,.377-.377v-2.718a.381.381,0,0,0-.377-.377h-2.718Z" transform="translate(-762.397 -614.289)" fill="#0c1011"/>
      <path id="Path_3159" data-name="Path 3159" d="M776.89,618.661h-2.718a.774.774,0,0,1-.772-.772v-2.718a.774.774,0,0,1,.772-.772h2.718a.774.774,0,0,1,.772.772v2.709A.77.77,0,0,1,776.89,618.661Zm-2.71-3.867a.381.381,0,0,0-.377.377v2.709a.381.381,0,0,0,.377.377H776.9a.381.381,0,0,0,.377-.377v-2.718a.381.381,0,0,0-.377-.377H774.18Z" transform="translate(-711.93 -614.289)" fill="#0c1011"/>
      <path id="Path_3160" data-name="Path 3160" d="M721.79,618.661h-2.718a.774.774,0,0,1-.772-.772v-2.718a.774.774,0,0,1,.772-.772h2.718a.774.774,0,0,1,.772.772v2.709A.776.776,0,0,1,721.79,618.661Zm-2.718-3.867a.381.381,0,0,0-.377.377v2.709a.381.381,0,0,0,.377.377h2.718a.381.381,0,0,0,.377-.377v-2.718a.381.381,0,0,0-.377-.377h-2.718Z" transform="translate(-661.555 -614.289)" fill="#0c1011"/>
      <path id="Path_3161" data-name="Path 3161" d="M666.59,618.661h-2.718a.774.774,0,0,1-.772-.772v-2.718a.774.774,0,0,1,.772-.772h2.718a.774.774,0,0,1,.772.772v2.709A.77.77,0,0,1,666.59,618.661Zm-2.709-3.867a.381.381,0,0,0-.377.377v2.709a.381.381,0,0,0,.377.377H666.6a.381.381,0,0,0,.377-.377v-2.718a.381.381,0,0,0-.377-.377H663.88Z" transform="translate(-611.088 -614.289)" fill="#0c1011"/>
      <path id="Path_3162" data-name="Path 3162" d="M335.79,617.361h-2.718a.774.774,0,0,1-.772-.772v-2.718a.774.774,0,0,1,.772-.772h2.718a.774.774,0,0,1,.772.772v2.718A.78.78,0,0,1,335.79,617.361Zm-2.718-3.867a.381.381,0,0,0-.377.377v2.718a.381.381,0,0,0,.377.377h2.718a.381.381,0,0,0,.377-.377v-2.718a.381.381,0,0,0-.377-.377Z" transform="translate(-308.652 -613.1)" fill="#0c1011"/>
      <path id="Path_3163" data-name="Path 3163" d="M556.29,618.661h-2.718a.774.774,0,0,1-.772-.772v-2.718a.774.774,0,0,1,.772-.772h2.718a.774.774,0,0,1,.772.772v2.709A.77.77,0,0,1,556.29,618.661Zm-2.709-3.867a.381.381,0,0,0-.377.377v2.709a.381.381,0,0,0,.377.377H556.3a.381.381,0,0,0,.377-.377v-2.718a.381.381,0,0,0-.377-.377H553.58Z" transform="translate(-510.246 -614.289)" fill="#0c1011"/>
      <path id="Path_3164" data-name="Path 3164" d="M501.19,618.661h-2.718a.774.774,0,0,1-.772-.772v-2.718a.774.774,0,0,1,.772-.772h2.718a.774.774,0,0,1,.772.772v2.709A.776.776,0,0,1,501.19,618.661Zm-2.718-3.867a.381.381,0,0,0-.377.377v2.709a.381.381,0,0,0,.377.377h2.718a.381.381,0,0,0,.377-.377v-2.718a.381.381,0,0,0-.377-.377h-2.718Z" transform="translate(-459.87 -614.289)" fill="#0c1011"/>
      <path id="Path_3165" data-name="Path 3165" d="M446.09,618.661h-2.718a.774.774,0,0,1-.772-.772v-2.718a.774.774,0,0,1,.772-.772h2.718a.774.774,0,0,1,.772.772v2.709A.781.781,0,0,1,446.09,618.661Zm-2.718-3.867a.381.381,0,0,0-.377.377v2.709a.381.381,0,0,0,.377.377h2.718a.381.381,0,0,0,.377-.377v-2.718a.381.381,0,0,0-.377-.377h-2.718Z" transform="translate(-409.494 -614.289)" fill="#0c1011"/>
      <path id="Path_3166" data-name="Path 3166" d="M390.89,618.661h-2.718a.774.774,0,0,1-.772-.772v-2.718a.774.774,0,0,1,.772-.772h2.718a.774.774,0,0,1,.772.772v2.709A.776.776,0,0,1,390.89,618.661Zm-2.718-3.867a.381.381,0,0,0-.377.377v2.709a.381.381,0,0,0,.377.377h2.718a.381.381,0,0,0,.377-.377v-2.718a.381.381,0,0,0-.377-.377h-2.718Z" transform="translate(-359.027 -614.289)" fill="#0c1011"/>
      <path id="Path_3167" data-name="Path 3167" d="M59.99,617.361H57.272a.774.774,0,0,1-.772-.772v-2.718a.774.774,0,0,1,.772-.772H59.99a.774.774,0,0,1,.772.772v2.718A.774.774,0,0,1,59.99,617.361Zm-2.718-3.867a.381.381,0,0,0-.377.377v2.718a.381.381,0,0,0,.377.377H59.99a.381.381,0,0,0,.377-.377v-2.718a.381.381,0,0,0-.377-.377Z" transform="translate(-56.5 -613.1)" fill="#0c1011"/>
      <path id="Path_3168" data-name="Path 3168" d="M280.59,618.661h-2.718a.774.774,0,0,1-.772-.772v-2.718a.774.774,0,0,1,.772-.772h2.718a.774.774,0,0,1,.772.772v2.709A.776.776,0,0,1,280.59,618.661Zm-2.718-3.867a.381.381,0,0,0-.377.377v2.709a.381.381,0,0,0,.377.377h2.718a.381.381,0,0,0,.377-.377v-2.718a.381.381,0,0,0-.377-.377h-2.718Z" transform="translate(-258.185 -614.289)" fill="#0c1011"/>
      <path id="Path_3169" data-name="Path 3169" d="M225.49,618.661h-2.718a.774.774,0,0,1-.772-.772v-2.718a.774.774,0,0,1,.772-.772h2.718a.774.774,0,0,1,.772.772v2.709A.781.781,0,0,1,225.49,618.661Zm-2.718-3.867a.381.381,0,0,0-.377.377v2.709a.381.381,0,0,0,.377.377h2.718a.381.381,0,0,0,.377-.377v-2.718a.381.381,0,0,0-.377-.377h-2.718Z" transform="translate(-207.809 -614.289)" fill="#0c1011"/>
      <path id="Path_3170" data-name="Path 3170" d="M170.29,618.661h-2.718a.774.774,0,0,1-.772-.772v-2.718a.774.774,0,0,1,.772-.772h2.718a.774.774,0,0,1,.772.772v2.709A.776.776,0,0,1,170.29,618.661Zm-2.718-3.867a.381.381,0,0,0-.377.377v2.709a.381.381,0,0,0,.377.377h2.718a.381.381,0,0,0,.377-.377v-2.718a.381.381,0,0,0-.377-.377h-2.718Z" transform="translate(-157.342 -614.289)" fill="#0c1011"/>
      <path id="Path_3171" data-name="Path 3171" d="M115.19,618.661h-2.718a.774.774,0,0,1-.772-.772v-2.718a.774.774,0,0,1,.772-.772h2.718a.774.774,0,0,1,.772.772v2.709A.781.781,0,0,1,115.19,618.661Zm-2.718-3.867a.381.381,0,0,0-.377.377v2.709a.381.381,0,0,0,.377.377h2.718a.381.381,0,0,0,.377-.377v-2.718a.381.381,0,0,0-.377-.377h-2.718Z" transform="translate(-106.967 -614.289)" fill="#0c1011"/>
    </g>
    <g id="Group_1634" data-name="Group 1634" transform="translate(4.84 57.208)">
      <path id="Path_3172" data-name="Path 3172" d="M611.49,671.461h-2.718a.774.774,0,0,1-.772-.772v-2.718a.774.774,0,0,1,.772-.772h2.718a.774.774,0,0,1,.772.772v2.718A.774.774,0,0,1,611.49,671.461Zm-2.718-3.867a.381.381,0,0,0-.377.377v2.718a.381.381,0,0,0,.377.377h2.718a.381.381,0,0,0,.377-.377v-2.718a.381.381,0,0,0-.377-.377Z" transform="translate(-560.712 -667.2)" fill="#0c1011"/>
      <path id="Path_3173" data-name="Path 3173" d="M611.49,725.561h-2.718a.774.774,0,0,1-.772-.772v-2.718a.774.774,0,0,1,.772-.772h2.718a.774.774,0,0,1,.772.772v2.718A.769.769,0,0,1,611.49,725.561Zm-2.718-3.859a.381.381,0,0,0-.377.377v2.709a.381.381,0,0,0,.377.377h2.718a.381.381,0,0,0,.377-.377v-2.718a.381.381,0,0,0-.377-.377h-2.718Z" transform="translate(-560.712 -716.661)" fill="#0c1011"/>
      <path id="Path_3174" data-name="Path 3174" d="M611.49,779.761h-2.718a.774.774,0,0,1-.772-.772v-2.718a.774.774,0,0,1,.772-.772h2.718a.774.774,0,0,1,.772.772v2.718A.774.774,0,0,1,611.49,779.761Zm-2.718-3.867a.381.381,0,0,0-.377.377v2.718a.381.381,0,0,0,.377.377h2.718a.381.381,0,0,0,.377-.377v-2.718a.381.381,0,0,0-.377-.377Z" transform="translate(-560.712 -766.214)" fill="#0c1011"/>
      <path id="Path_3175" data-name="Path 3175" d="M611.49,833.861h-2.718a.774.774,0,0,1-.772-.772v-2.718a.774.774,0,0,1,.772-.772h2.718a.774.774,0,0,1,.772.772v2.718A.774.774,0,0,1,611.49,833.861Zm-2.718-3.867a.381.381,0,0,0-.377.377v2.718a.381.381,0,0,0,.377.377h2.718a.381.381,0,0,0,.377-.377v-2.718a.381.381,0,0,0-.377-.377Z" transform="translate(-560.712 -815.675)" fill="#0c1011"/>
      <path id="Path_3176" data-name="Path 3176" d="M335.79,671.461h-2.718a.774.774,0,0,1-.772-.772v-2.718a.774.774,0,0,1,.772-.772h2.718a.774.774,0,0,1,.772.772v2.718A.78.78,0,0,1,335.79,671.461Zm-2.718-3.867a.381.381,0,0,0-.377.377v2.718a.381.381,0,0,0,.377.377h2.718a.381.381,0,0,0,.377-.377v-2.718a.381.381,0,0,0-.377-.377Z" transform="translate(-308.652 -667.2)" fill="#0c1011"/>
      <path id="Path_3177" data-name="Path 3177" d="M335.79,725.561h-2.718a.774.774,0,0,1-.772-.772v-2.718a.774.774,0,0,1,.772-.772h2.718a.774.774,0,0,1,.772.772v2.718A.774.774,0,0,1,335.79,725.561Zm-2.718-3.859a.381.381,0,0,0-.377.377v2.709a.381.381,0,0,0,.377.377h2.718a.381.381,0,0,0,.377-.377v-2.718a.381.381,0,0,0-.377-.377h-2.718Z" transform="translate(-308.652 -716.661)" fill="#0c1011"/>
      <path id="Path_3178" data-name="Path 3178" d="M335.79,779.761h-2.718a.774.774,0,0,1-.772-.772v-2.718a.774.774,0,0,1,.772-.772h2.718a.774.774,0,0,1,.772.772v2.718A.78.78,0,0,1,335.79,779.761Zm-2.718-3.867a.381.381,0,0,0-.377.377v2.718a.381.381,0,0,0,.377.377h2.718a.381.381,0,0,0,.377-.377v-2.718a.381.381,0,0,0-.377-.377Z" transform="translate(-308.652 -766.214)" fill="#0c1011"/>
      <path id="Path_3179" data-name="Path 3179" d="M335.79,833.861h-2.718a.774.774,0,0,1-.772-.772v-2.718a.774.774,0,0,1,.772-.772h2.718a.774.774,0,0,1,.772.772v2.718A.78.78,0,0,1,335.79,833.861Zm-2.718-3.867a.381.381,0,0,0-.377.377v2.718a.381.381,0,0,0,.377.377h2.718a.381.381,0,0,0,.377-.377v-2.718a.381.381,0,0,0-.377-.377Z" transform="translate(-308.652 -815.675)" fill="#0c1011"/>
      <path id="Path_3180" data-name="Path 3180" d="M59.99,671.461H57.272a.774.774,0,0,1-.772-.772v-2.718a.774.774,0,0,1,.772-.772H59.99a.774.774,0,0,1,.772.772v2.718A.774.774,0,0,1,59.99,671.461Zm-2.718-3.867a.381.381,0,0,0-.377.377v2.718a.381.381,0,0,0,.377.377H59.99a.381.381,0,0,0,.377-.377v-2.718a.381.381,0,0,0-.377-.377Z" transform="translate(-56.5 -667.2)" fill="#0c1011"/>
      <path id="Path_3181" data-name="Path 3181" d="M59.99,725.561H57.272a.774.774,0,0,1-.772-.772v-2.718a.774.774,0,0,1,.772-.772H59.99a.774.774,0,0,1,.772.772v2.718A.769.769,0,0,1,59.99,725.561ZM57.272,721.7a.381.381,0,0,0-.377.377v2.709a.381.381,0,0,0,.377.377H59.99a.381.381,0,0,0,.377-.377v-2.718a.381.381,0,0,0-.377-.377H57.272Z" transform="translate(-56.5 -716.661)" fill="#0c1011"/>
      <path id="Path_3182" data-name="Path 3182" d="M59.99,779.761H57.272a.774.774,0,0,1-.772-.772v-2.718a.774.774,0,0,1,.772-.772H59.99a.774.774,0,0,1,.772.772v2.718A.774.774,0,0,1,59.99,779.761Zm-2.718-3.867a.381.381,0,0,0-.377.377v2.718a.381.381,0,0,0,.377.377H59.99a.381.381,0,0,0,.377-.377v-2.718a.381.381,0,0,0-.377-.377Z" transform="translate(-56.5 -766.214)" fill="#0c1011"/>
      <path id="Path_3183" data-name="Path 3183" d="M59.99,833.861H57.272a.774.774,0,0,1-.772-.772v-2.718a.774.774,0,0,1,.772-.772H59.99a.774.774,0,0,1,.772.772v2.718A.774.774,0,0,1,59.99,833.861Zm-2.718-3.867a.381.381,0,0,0-.377.377v2.718a.381.381,0,0,0,.377.377H59.99a.381.381,0,0,0,.377-.377v-2.718a.381.381,0,0,0-.377-.377Z" transform="translate(-56.5 -815.675)" fill="#0c1011"/>
    </g>
    <path id="Path_3184" data-name="Path 3184" d="M686.979,150.557h-12.5a2.181,2.181,0,0,1-2.178-2.178v-12.5a2.181,2.181,0,0,1,2.178-2.178h12.5a2.181,2.181,0,0,1,2.178,2.178v12.5A2.181,2.181,0,0,1,686.979,150.557Z" transform="translate(-614.659 -122.236)" stroke="#0cacff" stroke-miterlimit="10" stroke-width="0.2" fill="url(#linear-gradient)"/>
    <g id="Group_1635" data-name="Group 1635" transform="translate(57.469 34.495)">
      <path id="Path_3185" data-name="Path 3185" d="M686.979,421.157h-12.5a2.181,2.181,0,0,1-2.178-2.178v-12.5a2.181,2.181,0,0,1,2.178-2.178h12.5a2.181,2.181,0,0,1,2.178,2.178v12.5A2.175,2.175,0,0,1,686.979,421.157Z" transform="translate(-672.128 -404.129)" fill="#fff"/>
      <path id="Path_3186" data-name="Path 3186" d="M685.151,419.5h-12.5a2.353,2.353,0,0,1-2.349-2.349v-12.5a2.353,2.353,0,0,1,2.349-2.349h12.5a2.353,2.353,0,0,1,2.349,2.349v12.5A2.347,2.347,0,0,1,685.151,419.5Zm-12.5-16.849a2.009,2.009,0,0,0-2.006,2.006v12.5a2.009,2.009,0,0,0,2.006,2.006h12.5a2.009,2.009,0,0,0,2.006-2.006v-12.51a2.009,2.009,0,0,0-2.006-2.006h-12.5Z" transform="translate(-670.3 -402.3)" fill="#0057dc"/>
    </g>
    <path id="Path_3187" data-name="Path 3187" d="M686.979,691.857h-12.5a2.181,2.181,0,0,1-2.178-2.178v-12.5A2.181,2.181,0,0,1,674.478,675h12.5a2.181,2.181,0,0,1,2.178,2.178v12.5A2.181,2.181,0,0,1,686.979,691.857Z" transform="translate(-614.659 -617.123)" stroke="#0cacff" stroke-miterlimit="10" stroke-width="0.2" fill="url(#linear-gradient-2)"/>
    <path id="Path_3188" data-name="Path 3188" d="M408.188,421.157h-12.51a2.181,2.181,0,0,1-2.178-2.178v-12.5a2.181,2.181,0,0,1,2.178-2.178h12.5a2.181,2.181,0,0,1,2.178,2.178v12.5A2.163,2.163,0,0,1,408.188,421.157Z" transform="translate(-359.764 -369.634)" stroke="#0cacff" stroke-miterlimit="10" stroke-width="0.2" fill="url(#linear-gradient-3)"/>
    <g id="Group_1636" data-name="Group 1636" transform="translate(33.821 57.705)">
      <path id="Path_3189" data-name="Path 3189" d="M411.188,691.857h-12.51a2.181,2.181,0,0,1-2.178-2.178v-12.5A2.181,2.181,0,0,1,398.678,675h12.5a2.181,2.181,0,0,1,2.178,2.178v12.5A2.168,2.168,0,0,1,411.188,691.857Z" transform="translate(-396.329 -674.828)" fill="#fff"/>
      <path id="Path_3190" data-name="Path 3190" d="M409.359,690.2h-12.51a2.353,2.353,0,0,1-2.349-2.349v-12.5A2.353,2.353,0,0,1,396.849,673h12.5a2.353,2.353,0,0,1,2.349,2.349v12.5A2.34,2.34,0,0,1,409.359,690.2Zm-12.51-16.857a2.009,2.009,0,0,0-2.006,2.006v12.5a2.009,2.009,0,0,0,2.006,2.006h12.5a2.009,2.009,0,0,0,2.006-2.006v-12.5a2.009,2.009,0,0,0-2.006-2.006Z" transform="translate(-394.5 -673)" fill="#0057dc"/>
    </g>
    <path id="Path_3191" data-name="Path 3191" d="M135.479,691.857h-12.5a2.181,2.181,0,0,1-2.178-2.178v-12.5A2.181,2.181,0,0,1,122.978,675h12.5a2.181,2.181,0,0,1,2.178,2.178v12.5A2.175,2.175,0,0,1,135.479,691.857Z" transform="translate(-110.447 -617.123)" stroke="#0cacff" stroke-miterlimit="10" stroke-width="0.2" fill="url(#linear-gradient-4)"/>
    <g id="Group_1637" data-name="Group 1637" transform="translate(4.84 75.711)">
      <path id="Path_3192" data-name="Path 3192" d="M611.49,887.261h-2.718a.774.774,0,0,1-.772-.772v-2.718a.774.774,0,0,1,.772-.772h2.718a.774.774,0,0,1,.772.772v2.718A.774.774,0,0,1,611.49,887.261Zm-2.718-3.867a.381.381,0,0,0-.377.377v2.718a.381.381,0,0,0,.377.377h2.718a.381.381,0,0,0,.377-.377v-2.718a.381.381,0,0,0-.377-.377Z" transform="translate(-560.712 -883)" fill="#0c1011"/>
      <path id="Path_3193" data-name="Path 3193" d="M832.09,888.561h-2.718a.774.774,0,0,1-.772-.772v-2.718a.774.774,0,0,1,.772-.772h2.718a.774.774,0,0,1,.772.772v2.718A.774.774,0,0,1,832.09,888.561Zm-2.718-3.867a.381.381,0,0,0-.377.377v2.718a.381.381,0,0,0,.377.377h2.718a.381.381,0,0,0,.377-.377v-2.718a.381.381,0,0,0-.377-.377Z" transform="translate(-762.397 -884.188)" fill="#0c1011"/>
      <path id="Path_3194" data-name="Path 3194" d="M776.89,888.561h-2.718a.774.774,0,0,1-.772-.772v-2.718a.774.774,0,0,1,.772-.772h2.718a.774.774,0,0,1,.772.772v2.718A.768.768,0,0,1,776.89,888.561Zm-2.71-3.867a.381.381,0,0,0-.377.377v2.718a.381.381,0,0,0,.377.377H776.9a.381.381,0,0,0,.377-.377v-2.718a.381.381,0,0,0-.377-.377Z" transform="translate(-711.93 -884.188)" fill="#0c1011"/>
      <path id="Path_3195" data-name="Path 3195" d="M721.79,888.561h-2.718a.774.774,0,0,1-.772-.772v-2.718a.774.774,0,0,1,.772-.772h2.718a.774.774,0,0,1,.772.772v2.718A.774.774,0,0,1,721.79,888.561Zm-2.718-3.867a.381.381,0,0,0-.377.377v2.718a.381.381,0,0,0,.377.377h2.718a.381.381,0,0,0,.377-.377v-2.718a.381.381,0,0,0-.377-.377Z" transform="translate(-661.555 -884.188)" fill="#0c1011"/>
      <path id="Path_3196" data-name="Path 3196" d="M666.59,888.561h-2.718a.774.774,0,0,1-.772-.772v-2.718a.774.774,0,0,1,.772-.772h2.718a.774.774,0,0,1,.772.772v2.718A.769.769,0,0,1,666.59,888.561Zm-2.709-3.867a.381.381,0,0,0-.377.377v2.718a.381.381,0,0,0,.377.377H666.6a.381.381,0,0,0,.377-.377v-2.718a.381.381,0,0,0-.377-.377Z" transform="translate(-611.088 -884.188)" fill="#0c1011"/>
      <path id="Path_3197" data-name="Path 3197" d="M335.79,887.261h-2.718a.774.774,0,0,1-.772-.772v-2.718a.774.774,0,0,1,.772-.772h2.718a.774.774,0,0,1,.772.772v2.718A.78.78,0,0,1,335.79,887.261Zm-2.718-3.867a.381.381,0,0,0-.377.377v2.718a.381.381,0,0,0,.377.377h2.718a.381.381,0,0,0,.377-.377v-2.718a.381.381,0,0,0-.377-.377Z" transform="translate(-308.652 -883)" fill="#0c1011"/>
      <path id="Path_3198" data-name="Path 3198" d="M556.29,888.561h-2.718a.774.774,0,0,1-.772-.772v-2.718a.774.774,0,0,1,.772-.772h2.718a.774.774,0,0,1,.772.772v2.718A.769.769,0,0,1,556.29,888.561Zm-2.709-3.867a.381.381,0,0,0-.377.377v2.718a.381.381,0,0,0,.377.377H556.3a.381.381,0,0,0,.377-.377v-2.718a.381.381,0,0,0-.377-.377Z" transform="translate(-510.246 -884.188)" fill="#0c1011"/>
      <path id="Path_3199" data-name="Path 3199" d="M501.19,888.561h-2.718a.774.774,0,0,1-.772-.772v-2.718a.774.774,0,0,1,.772-.772h2.718a.774.774,0,0,1,.772.772v2.718A.774.774,0,0,1,501.19,888.561Zm-2.718-3.867a.381.381,0,0,0-.377.377v2.718a.381.381,0,0,0,.377.377h2.718a.381.381,0,0,0,.377-.377v-2.718a.381.381,0,0,0-.377-.377Z" transform="translate(-459.87 -884.188)" fill="#0c1011"/>
      <path id="Path_3200" data-name="Path 3200" d="M446.09,888.561h-2.718a.774.774,0,0,1-.772-.772v-2.718a.774.774,0,0,1,.772-.772h2.718a.774.774,0,0,1,.772.772v2.718A.78.78,0,0,1,446.09,888.561Zm-2.718-3.867a.381.381,0,0,0-.377.377v2.718a.381.381,0,0,0,.377.377h2.718a.381.381,0,0,0,.377-.377v-2.718a.381.381,0,0,0-.377-.377Z" transform="translate(-409.494 -884.188)" fill="#0c1011"/>
      <path id="Path_3201" data-name="Path 3201" d="M390.89,888.561h-2.718a.774.774,0,0,1-.772-.772v-2.718a.774.774,0,0,1,.772-.772h2.718a.774.774,0,0,1,.772.772v2.718A.774.774,0,0,1,390.89,888.561Zm-2.718-3.867a.381.381,0,0,0-.377.377v2.718a.381.381,0,0,0,.377.377h2.718a.381.381,0,0,0,.377-.377v-2.718a.381.381,0,0,0-.377-.377Z" transform="translate(-359.027 -884.188)" fill="#0c1011"/>
      <path id="Path_3202" data-name="Path 3202" d="M59.99,887.261H57.272a.774.774,0,0,1-.772-.772v-2.718a.774.774,0,0,1,.772-.772H59.99a.774.774,0,0,1,.772.772v2.718A.774.774,0,0,1,59.99,887.261Zm-2.718-3.867a.381.381,0,0,0-.377.377v2.718a.381.381,0,0,0,.377.377H59.99a.381.381,0,0,0,.377-.377v-2.718a.381.381,0,0,0-.377-.377Z" transform="translate(-56.5 -883)" fill="#0c1011"/>
      <path id="Path_3203" data-name="Path 3203" d="M280.59,888.561h-2.718a.774.774,0,0,1-.772-.772v-2.718a.774.774,0,0,1,.772-.772h2.718a.774.774,0,0,1,.772.772v2.718A.774.774,0,0,1,280.59,888.561Zm-2.718-3.867a.381.381,0,0,0-.377.377v2.718a.381.381,0,0,0,.377.377h2.718a.381.381,0,0,0,.377-.377v-2.718a.381.381,0,0,0-.377-.377Z" transform="translate(-258.185 -884.188)" fill="#0c1011"/>
      <path id="Path_3204" data-name="Path 3204" d="M225.49,888.561h-2.718a.774.774,0,0,1-.772-.772v-2.718a.774.774,0,0,1,.772-.772h2.718a.774.774,0,0,1,.772.772v2.718A.78.78,0,0,1,225.49,888.561Zm-2.718-3.867a.381.381,0,0,0-.377.377v2.718a.381.381,0,0,0,.377.377h2.718a.381.381,0,0,0,.377-.377v-2.718a.381.381,0,0,0-.377-.377Z" transform="translate(-207.809 -884.188)" fill="#0c1011"/>
      <path id="Path_3205" data-name="Path 3205" d="M170.29,888.561h-2.718a.774.774,0,0,1-.772-.772v-2.718a.774.774,0,0,1,.772-.772h2.718a.774.774,0,0,1,.772.772v2.718A.774.774,0,0,1,170.29,888.561Zm-2.718-3.867a.381.381,0,0,0-.377.377v2.718a.381.381,0,0,0,.377.377h2.718a.381.381,0,0,0,.377-.377v-2.718a.381.381,0,0,0-.377-.377Z" transform="translate(-157.342 -884.188)" fill="#0c1011"/>
      <path id="Path_3206" data-name="Path 3206" d="M115.19,888.561h-2.718a.774.774,0,0,1-.772-.772v-2.718a.774.774,0,0,1,.772-.772h2.718a.774.774,0,0,1,.772.772v2.718A.78.78,0,0,1,115.19,888.561Zm-2.718-3.867a.381.381,0,0,0-.377.377v2.718a.381.381,0,0,0,.377.377h2.718a.381.381,0,0,0,.377-.377v-2.718a.381.381,0,0,0-.377-.377Z" transform="translate(-106.967 -884.188)" fill="#0c1011"/>
    </g>
    <g id="Group_1639" data-name="Group 1639" transform="translate(-0.005)">
      <g id="Group_1638" data-name="Group 1638" transform="translate(0)">
        <path id="Path_3207" data-name="Path 3207" d="M131.068,323.925a4.028,4.028,0,0,0,2.169-.712,1.96,1.96,0,0,0,.326-.257c.66-.652,1.329-1.3,1.981-1.964a3,3,0,0,0-2.392-5.136,3.151,3.151,0,0,0-1.989.995c-.532.523-1.055,1.055-1.595,1.561a.487.487,0,0,1-.437.069c-.163-.129-.086-.309.069-.463.617-.6,1.209-1.235,1.852-1.818a3.467,3.467,0,0,1,2.589-.875,3.52,3.52,0,0,1,1.938.669,3.269,3.269,0,0,1,1.346,2.315,3.405,3.405,0,0,1-.995,3.027c-.42.412-.806.849-1.226,1.252a9.5,9.5,0,0,1-1.192,1.089,4.458,4.458,0,0,1-2.075.772,4.9,4.9,0,0,1-2.332-.326,5.538,5.538,0,0,1-1.938-1.449c-.343-.343-.66-.712-.995-1.063a4.219,4.219,0,0,1-1.115-3.2,4.5,4.5,0,0,1,1.329-3.078q1.659-1.685,3.335-3.37c.129-.129.266-.266.463-.086.129.111.163.223.034.352-.557.557-1.132,1.1-1.672,1.663-.772.8-1.595,1.569-2.289,2.444a3.663,3.663,0,0,0-.677,2.367,4.189,4.189,0,0,0,1.4,3.052,13.383,13.383,0,0,0,1.535,1.432A3.771,3.771,0,0,0,131.068,323.925Z" transform="translate(-114.331 -285.058)" fill="#0c1011"/>
        <path id="Path_3208" data-name="Path 3208" d="M13.569,420.578c-1.132-.154-2.289-.317-3.447-.463-1.209-.146-2.427-.257-3.644-.4-1.089-.137-2.178-.3-3.267-.446C2.474,419.171,1.736,419.06,1,419a.57.57,0,0,0-.472.223c-.06.137.06.36.1.54,0,.009.017.017.017.026.866.866,1.732,1.723,2.6,2.589,1.149,1.14,2.306,2.281,3.455,3.43.266.266.532.532.772.823.069.086.043.24.069.36-.129-.017-.309.017-.386-.051-.815-.789-1.612-1.595-2.418-2.4-.917-.917-1.843-1.826-2.761-2.744-.574-.574-1.14-1.149-1.706-1.723a.977.977,0,0,1-.18-1.089,1.031,1.031,0,0,1,1.02-.472c1.226.163,2.461.3,3.687.454.977.12,1.946.266,2.924.394,1.466.189,2.932.369,4.39.549.446.06.9.111,1.346.171.214.034.42.026.532-.189a.426.426,0,0,0-.094-.549c-.06-.06-.094-.146-.154-.2Q11.8,417.229,9.865,415.3c-.866-.866-1.741-1.749-2.624-2.624a1.086,1.086,0,0,1-.232-.3c-.043-.077-.06-.24-.026-.266a.367.367,0,0,1,.309-.06c.1.034.18.146.266.232.06.06.094.137.154.2,1.132,1.132,2.272,2.255,3.413,3.387l3.087,3.061a.952.952,0,0,1,.292,1.029.848.848,0,0,1-.652.6C13.766,420.569,13.68,420.569,13.569,420.578Z" transform="translate(0.005 -376.711)" fill="#0c1011"/>
        <path id="Path_3209" data-name="Path 3209" d="M218.194,215.153a4.167,4.167,0,0,0-1.278-3.113c-.737-.7-1.44-1.432-2.161-2.152-.669-.677-1.338-1.355-2.015-2.024-.163-.154-.206-.334-.043-.463a.433.433,0,0,1,.412.069q1.659,1.621,3.3,3.258c.369.369.737.729,1.08,1.115A4.573,4.573,0,0,1,218.614,216a4.494,4.494,0,0,1-1.689,2.7,11.518,11.518,0,0,1-1.363,1.072,4.45,4.45,0,0,1-3.858.189,5.417,5.417,0,0,1-1.912-1.372c-.283-.283-.549-.583-.832-.866q-1.479-1.479-2.975-2.95c-.051-.051-.137-.1-.146-.163a1.941,1.941,0,0,1,.017-.386c.12.009.283-.026.36.034.309.266.6.566.892.849.695.695,1.389,1.4,2.084,2.092a19.734,19.734,0,0,0,1.955,1.835,4.327,4.327,0,0,0,1.629.66,3.69,3.69,0,0,0,1.972-.146,3.564,3.564,0,0,0,1.449-.832,16.543,16.543,0,0,0,1.278-1.415A3.645,3.645,0,0,0,218.194,215.153Z" transform="translate(-188.183 -189.593)" fill="#0c1011"/>
        <path id="Path_3210" data-name="Path 3210" d="M418.835,0c.069.069.111.129.172.18,1.338,1.32,2.667,2.658,4.021,3.961A4.82,4.82,0,0,1,424.6,7.048a4.558,4.558,0,0,1-.489,2.8,7.272,7.272,0,0,1-2.229,2.367,4.219,4.219,0,0,1-3.155.7,4.558,4.558,0,0,1-2.589-1.235c-.8-.763-1.561-1.552-2.341-2.332-.66-.66-1.3-1.32-1.972-1.972-.154-.154-.232-.326-.06-.454A.483.483,0,0,1,412.2,7c1.149,1.115,2.272,2.255,3.421,3.37a18.049,18.049,0,0,0,1.595,1.44,3.486,3.486,0,0,0,2.186.609,3.645,3.645,0,0,0,2.289-.72,5.268,5.268,0,0,0,2.366-3.361,4.077,4.077,0,0,0-1.226-3.661c-1.175-1.149-2.341-2.315-3.507-3.473-.223-.223-.429-.454-.652-.677C418.415.274,418.458.137,418.835,0Z" transform="translate(-376.366)" fill="#0c1011"/>
        <path id="Path_3211" data-name="Path 3211" d="M314,110.8a1.821,1.821,0,0,1-1.586,1.929,2.922,2.922,0,0,1-1.218-.249c-.935-.352-1.852-.755-2.77-1.14-.712-.292-1.423-.6-2.135-.892-.729-.292-1.458-.574-2.186-.866-.7-.283-1.406-.557-2.092-.866-.1-.043-.146-.24-.214-.369.137-.034.309-.137.412-.094.892.352,1.775.737,2.658,1.106,1.415.592,2.83,1.175,4.244,1.766.789.326,1.578.66,2.375.977a1.372,1.372,0,0,0,2.024-1.046,1.165,1.165,0,0,0-.069-.592c-.3-.763-.635-1.509-.943-2.264-.334-.823-.66-1.655-1-2.487-.42-1.02-.849-2.041-1.269-3.061-.249-.6-.48-1.209-.695-1.818-.034-.086.051-.223.086-.334.111.069.283.111.326.206.514,1.235,1.012,2.469,1.518,3.713.557,1.355,1.115,2.7,1.663,4.056.283.695.549,1.389.823,2.092A.916.916,0,0,1,314,110.8Z" transform="translate(-275.922 -91.883)" fill="#0c1011"/>
      </g>
    </g>
  </g>
</svg>
