<svg xmlns="http://www.w3.org/2000/svg" width="243.921" height="73.034" viewBox="0 0 243.921 73.034">
  <g id="price-history-chart" transform="translate(-44.079 -440)">
    <path id="price-history-chart-line" d="M58,490.178l14.632,34.56,14.56-44.56,14.56,24.56,14.56,15.44,13.151-40,17.477-12.1,13.05,36.659,15.5-27.642,12.967,38.713,16.667,15.44L218.2,492.443l15.11,32.295,13.7-34.56,14.861-10,14.7,5.864,14.458-15.864" transform="translate(-13 -20)" fill="none" stroke="#036fe6" stroke-width="2"/>
    <g id="Path_3212" data-name="Path 3212" transform="translate(275 440)" fill="#fff">
      <path d="M 6.5 12 C 3.467289924621582 12 1 9.532710075378418 1 6.5 C 1 3.467289924621582 3.467289924621582 1 6.5 1 C 9.532710075378418 1 12 3.467289924621582 12 6.5 C 12 9.532710075378418 9.532710075378418 12 6.5 12 Z" stroke="none"/>
      <path d="M 6.5 2 C 4.01869010925293 2 2 4.01869010925293 2 6.5 C 2 8.98130989074707 4.01869010925293 11 6.5 11 C 8.98130989074707 11 11 8.98130989074707 11 6.5 C 11 4.01869010925293 8.98130989074707 2 6.5 2 M 6.5 0 C 10.0898494720459 0 13 2.910149574279785 13 6.5 C 13 10.0898494720459 10.0898494720459 13 6.5 13 C 2.910149574279785 13 0 10.0898494720459 0 6.5 C 0 2.910149574279785 2.910149574279785 0 6.5 0 Z" stroke="none" fill="#036fe6"/>
    </g>
  </g>
</svg>
