<svg xmlns="http://www.w3.org/2000/svg" xmlns:xlink="http://www.w3.org/1999/xlink" width="157.726" height="202.132" viewBox="0 0 157.726 202.132">
  <defs>
    <linearGradient id="linear-gradient" y1="0.466" x2="1" y2="0.471" gradientUnits="objectBoundingBox">
      <stop offset="0" stop-color="#0057dc"/>
      <stop offset="0.202" stop-color="#036fe6"/>
      <stop offset="0.537" stop-color="#0890f3"/>
      <stop offset="0.815" stop-color="#0ba5fc"/>
      <stop offset="1" stop-color="#0cacff"/>
    </linearGradient>
  </defs>
  <g id="rocket" transform="translate(-108.419 -250.601)">
    <g id="Group_70" data-name="Group 70" transform="translate(0 86)">
      <g id="launch" transform="translate(108.407 209)">
        <path id="Path_122" data-name="Path 122" d="M63.486,332.792A32.085,32.085,0,0,1,55.074,347.4c-9.614,9.521-45.18,20.869-49.155,22.071a4.616,4.616,0,0,1-4.529-1.2,4.726,4.726,0,0,1-1.2-4.622c1.2-3.882,12.641-39.357,22.162-48.97a32.093,32.093,0,0,1,14.605-8.412l13.219,13.219Z" transform="translate(0 -211.911)" fill="#ffe470"/>
        <g id="Group_67" data-name="Group 67" transform="translate(1.39 104.704)">
          <path id="Path_123" data-name="Path 123" d="M53.271,349.172l13.311,13.31a32.085,32.085,0,0,1-8.412,14.605c-9.614,9.521-45.18,20.869-49.155,22.071a4.616,4.616,0,0,1-4.529-1.2Z" transform="translate(-4.486 -346.305)" fill="#ffd400"/>
          <path id="Path_124" data-name="Path 124" d="M120.969,347.725l-13.034,13.126a4.964,4.964,0,0,1-3.235,1.294,5.017,5.017,0,0,1-3.328-1.294v-.092a4.631,4.631,0,0,1,0-6.47L114.5,341.254a4.361,4.361,0,0,1,6.378,0h.092A4.469,4.469,0,0,1,120.969,347.725Z" transform="translate(-70.612 -339.867)" fill="#ffd400"/>
        </g>
        <path id="Path_125" data-name="Path 125" d="M123.927,344.369a4.468,4.468,0,0,1,0,6.471l-13.034,13.126a4.964,4.964,0,0,1-3.235,1.294,5.016,5.016,0,0,1-3.328-1.294v-.092l19.5-19.5Z" transform="translate(-72.18 -238.278)" fill="#fdbf00"/>
        <path id="Path_126" data-name="Path 126" d="M74.479,147.548c-32.826,0-43.185,27.752-44.016,28.679a4.624,4.624,0,0,0,4.125,6.707l29.862,2.64,15.721-38.027H74.479Z" transform="translate(-20.726 -102.092)" fill="#ff7816"/>
        <path id="Path_127" data-name="Path 127" d="M241.013,333.831l2.239,29.514a4.627,4.627,0,0,0,6.707,4.125c.925-.829,28.679-11.386,28.679-44.016v-5.692Z" transform="translate(-166.755 -219.869)" fill="#ff4b00"/>
        <path id="Path_128" data-name="Path 128" d="M147.168,296.62c-4.9,2.5-9.8,4.9-14.42,7.21a4.655,4.655,0,0,1-5.362-.832l-26.067-26.067a4.653,4.653,0,0,1-.831-5.361c2.311-4.622,4.714-9.521,7.21-14.42,1.479-2.866,12.2,3.513,13.681.555l25.235,25.235C143.655,284.418,150.034,295.141,147.168,296.62Z" transform="translate(-69.169 -177.403)" fill="#ff9f00"/>
        <path id="Path_129" data-name="Path 129" d="M179.452,328.015c-4.9,2.5-9.8,4.9-14.42,7.21a4.655,4.655,0,0,1-5.362-.832L146.637,321.36l19.689-19.6L178.9,314.335C175.94,315.813,182.318,326.536,179.452,328.015Z" transform="translate(-101.454 -208.798)" fill="#ff7816"/>
        <path id="Path_130" data-name="Path 130" d="M240.395,54.572A82.5,82.5,0,0,1,217.1,94.6c-13.588,13.126-35.311,24.588-52.6,33.277l-19.689-19.689L125.032,88.4c8.689-17.286,20.152-39.1,33.278-52.6a82.5,82.5,0,0,1,40.026-23.295l9.336,3.42a30.019,30.019,0,0,0,8.689,20.613,30.019,30.019,0,0,0,20.614,8.689Z" transform="translate(-86.505 -8.658)" fill="url(#linear-gradient)"/>
        <path id="Path_131" data-name="Path 131" d="M284.824,108.552a82.5,82.5,0,0,1-23.295,40.026c-13.588,13.126-35.311,24.588-52.6,33.277l-19.689-19.689L260.79,90.526A30.019,30.019,0,0,0,281.4,99.215Z" transform="translate(-130.934 -62.637)" fill="url(#linear-gradient)"/>
        <path id="Path_132" data-name="Path 132" d="M291.685,116.83a23.073,23.073,0,1,0-32.63,32.631v.092a23.106,23.106,0,0,0,32.63-32.723Z" transform="translate(-174.585 -76.185)" fill="#76e2f8"/>
        <path id="Path_133" data-name="Path 133" d="M405.034,45.914c-.74,0-2.866-.092-3.605-.092A38.828,38.828,0,0,1,363.068,7.461c0-.74-.092-2.866-.092-3.605C376.1.435,390.8-.4,404.3.158A4.418,4.418,0,0,1,408.733,4.6C409.286,18.09,408.362,32.788,405.034,45.914Z" transform="translate(-251.144)" fill="#ff9f00"/>
        <path id="Path_134" data-name="Path 134" d="M234.907,262.812a4.575,4.575,0,1,1,0-6.471A4.468,4.468,0,0,1,234.907,262.812Z" transform="translate(-157.094 -176.41)" fill="#5a5a5a"/>
        <path id="Path_135" data-name="Path 135" d="M430.778,49.175c-.74,0-2.866-.092-3.605-.092a38.776,38.776,0,0,1-26.992-11.369l33-33a4.4,4.4,0,0,1,1.294,3.143C435.029,21.351,434.105,36.049,430.778,49.175Z" transform="translate(-276.888 -3.261)" fill="#ff7816"/>
        <path id="Path_136" data-name="Path 136" d="M306.789,164.656a23.154,23.154,0,0,1-32.63,0v-.092l32.63-32.631A23.1,23.1,0,0,1,306.789,164.656Z" transform="translate(-189.69 -91.288)" fill="#25d9f8"/>
        <path id="Path_137" data-name="Path 137" d="M238.021,265.926a4.468,4.468,0,0,1-6.47,0l6.47-6.471A4.468,4.468,0,0,1,238.021,265.926Z" transform="translate(-160.208 -179.524)" fill="#444"/>
      </g>
      <path id="Path_114" data-name="Path 114" d="M3009.66,3936.337a12.372,12.372,0,0,0,7.305,4.945c10.4-.028,23.125,1.476,25.457,3.884,3.5,3.61,16.1,18.793,16.1,18.793l6.95-5.308s-11.295-19.775-13.888-21.558-22.584-12.721-22.584-12.721Z" transform="translate(-2843 -3697)" fill="#1d1d1d"/>
      <path id="Union_1" data-name="Union 1" d="M-2849.738-3680.442s-1.482-6.653,5.886-11.137c3.607-2.2,8.029-1.338,11.6.11l7.326-1.531,3.247,9.581-1.306.372,12.452,21.712-19.32,12.458Z" transform="translate(2996.615 3888.496)" fill="#ff7816"/>
      <path id="Path_117" data-name="Path 117" d="M2995.441,3888.333s3.582-3.9,2.76-8.33-6.126-7.008-6.48-7.891a20.721,20.721,0,0,0-2.354-3.163l-10.544,6.536s-4.971,2.055.746,7.923a69.453,69.453,0,0,0,11.32,9.4Z" transform="matrix(0.998, 0.07, -0.07, 0.998, -2564.13, -3894.89)" fill="#ffc7c7"/>
      <path id="Path_118" data-name="Path 118" d="M2986.318,3872.047s4.763-3.291,4.9-3.946.17-6.594-2.3-6.2-8.487,3.28-8.281,4.308-4.114,1.5-3.512,2.98-.5,3.211-.5,4.6-1.984,2.46-.749,3.786.924,4.9,1.246,5.379a21.066,21.066,0,0,0,1.634,2.309c.56.6,3.428,1.587,4.745,1.987s6.245,2.843,6.245,2.843a14.338,14.338,0,0,0-1.269-6.023,23.76,23.76,0,0,0-4.318-5.755l3.013.686a22.441,22.441,0,0,0,.242-3.591C2987.25,3874.975,2986.318,3872.047,2986.318,3872.047Z" transform="translate(-2348.442 -4031.115) rotate(7)" fill="#1d1d1d"/>
      <path id="Path_120" data-name="Path 120" d="M3027.024,3888.951a16.81,16.81,0,0,0,4.289-1.464c1.2-.818,12.343-14.512,12.343-14.512l3.918,1.509s-12.518,18.806-13.947,19.321-4.115,1.42-4.115,1.42Z" transform="matrix(0.999, 0.035, -0.035, 0.999, -2717.7, -3795.712)" fill="#ffc7c7"/>
      <path id="Path_138" data-name="Path 138" d="M2994.814,3895.264l-3.493-4.441,5.193-4.491,3.752,6.075Z" transform="translate(-2845 -3696)" fill="#ffc7c7"/>
      <path id="Path_139" data-name="Path 139" d="M220.807,262.8l1.993,2.366-3.844,2.98-1.7-2.578Z" fill="#ffc7c7"/>
      <path id="Path_140" data-name="Path 140" d="M222.042,264.337s8.782-3.518,10-2.763.687,1.674.687,1.674l-12.778,8.89a22.52,22.52,0,0,1-3.289-3.085c-.822-1.163,0-1.566,0-1.566a18.722,18.722,0,0,0,4.175-1.255A2.762,2.762,0,0,0,222.042,264.337Z" fill="#ff7816"/>
      <path id="Path_141" data-name="Path 141" d="M220.028,272.138l.878,1.43,13.085-9.208-1.077-1.506Z" fill="#fff"/>
      <path id="Path_157" data-name="Path 157" d="M3251.677,3990.07s3.821-4.7,4.739-4.892,1.914-1.133,2.971-1.23.258.843.258.843l-2.375,1.641s1,2.041.507,2.917a14.434,14.434,0,0,1-2.454,2.46Z" transform="matrix(0.999, 0.035, -0.035, 0.999, -2921.491, -3919.9)" fill="#ffc7c7"/>
      <path id="Path_249" data-name="Path 249" d="M148.658,200.5c2.663-2.663.309,5.445,4.976,11.891s10.26,22.009,10.26,22.009l-17.115-26.7S146,203.163,148.658,200.5Z" fill="#fc6a00"/>
    </g>
    <path id="Path_248" data-name="Path 248" d="M153.8,255.2l5.883,2.427-3.465-3.893H153.8Z" transform="translate(0 28)" fill="#ffc7c7"/>
    <path id="Path_250" data-name="Path 250" d="M3207.865,3991.722l19.893-3.381,1.061,2.192-20.954,1.534Z" transform="translate(-3054 -3697)" fill="#ce5700"/>
  </g>
</svg>
