<svg xmlns="http://www.w3.org/2000/svg" xmlns:xlink="http://www.w3.org/1999/xlink" width="344.694" height="352.534" viewBox="0 0 344.694 352.534">
  <defs>
    <radialGradient id="radial-gradient" cx="0.5" cy="0.5" r="0.5" gradientUnits="objectBoundingBox">
      <stop offset="0" stop-color="#27aae1"/>
      <stop offset="0.025" stop-color="#2295c6"/>
      <stop offset="0.07" stop-color="#1b769d"/>
      <stop offset="0.119" stop-color="#155a77"/>
      <stop offset="0.174" stop-color="#0f4157"/>
      <stop offset="0.233" stop-color="#0a2d3b"/>
      <stop offset="0.301" stop-color="#061c25"/>
      <stop offset="0.38" stop-color="#040f14"/>
      <stop offset="0.478" stop-color="#020709"/>
      <stop offset="0.614" stop-color="#000102"/>
      <stop offset="0.995"/>
    </radialGradient>
  </defs>
  <g id="splash-banckgound-circle" transform="translate(-15.387 -87.196)">
    <ellipse id="XMLID_1_" cx="22.953" cy="22.953" rx="22.953" ry="22.953" transform="translate(94.453 389.51)" fill="url(#radial-gradient)" style="mix-blend-mode: color-dodge;isolation: isolate"/>
    <g id="Group_1695" data-name="Group 1695">
      <g id="XMLID_1_2" data-name="XMLID_1_" transform="translate(15.886 87.696)" style="mix-blend-mode: screen;isolation: isolate">
        <g id="XMLID_2_" transform="translate(0 0)" opacity="0.22">
          <g id="Group_1676" data-name="Group 1676">
            <g id="Group_1675" data-name="Group 1675">
              <g id="Group_1666" data-name="Group 1666" transform="translate(33.826 233.885)">
                <g id="Group_1665" data-name="Group 1665" transform="translate(40.04 44.277)">
                  <path id="Path_3244" data-name="Path 3244" d="M336.309,438.4s-.706.424-1.977,1.059-3.037,1.695-5.226,2.754c-1.13.494-2.33,1.13-3.6,1.695s-2.613,1.271-4.025,1.836c-2.825,1.2-5.861,2.542-8.968,3.6a160.323,160.323,0,0,1-17.231,5.226c-1.2.353-2.33.565-3.248.777-.989.212-1.836.353-2.542.494-1.412.282-2.189.494-2.189.494" transform="translate(-158.635 -407.046)" fill="none" stroke="#41cbfc" stroke-miterlimit="10" stroke-width="1"/>
                  <path id="Path_3245" data-name="Path 3245" d="M191.253,450.909s-.353,0-1.059-.071-1.695-.141-2.966-.283-2.825-.353-4.59-.635c-.918-.141-1.836-.283-2.825-.424-.989-.212-2.048-.353-3.107-.565-2.189-.424-4.52-.777-6.991-1.483-2.472-.636-5.084-1.2-7.768-1.977-1.342-.424-2.683-.777-4.025-1.2s-2.683-.918-4.1-1.412c-1.342-.494-2.754-.989-4.166-1.483-1.342-.565-2.754-1.13-4.1-1.695s-2.754-1.059-4.1-1.695-2.683-1.271-3.955-1.836c-2.683-1.2-5.155-2.613-7.627-3.884-.636-.353-1.2-.636-1.836-.989-.565-.353-1.2-.706-1.765-.989-1.13-.706-2.26-1.342-3.39-1.977-2.189-1.271-4.166-2.683-6-3.884-.918-.636-1.836-1.2-2.613-1.765a24.246,24.246,0,0,0-2.33-1.695c-1.412-1.059-2.683-1.977-3.743-2.754-1.977-1.624-3.107-2.613-3.107-2.613" transform="translate(-105.1 -400.347)" fill="none" stroke="#41cbfc" stroke-miterlimit="10" stroke-width="1"/>
                  <path id="Path_3246" data-name="Path 3246" d="M282.064,451l-2.26.565c-.706.212-1.624.424-2.613.706-.494.141-1.059.282-1.624.424s-1.2.282-1.836.424c-2.542.494-5.438,1.2-8.615,1.624-1.624.212-3.248.565-4.873.777-1.695.212-3.39.353-5.084.565s-3.39.282-5.084.353c-.847.071-1.695.071-2.472.141-.424,0-.847.071-1.2.071h-1.2c-3.248,0-6.214.141-8.757,0s-4.731-.141-6.214-.282-2.33-.212-2.33-.212" transform="translate(-141.182 -410.748)" fill="none" stroke="#41cbfc" stroke-miterlimit="10" stroke-width="1"/>
                  <path id="Path_3247" data-name="Path 3247" d="M372.11,394l-2.4,2.4-1.271,1.271-.706.706c-.282.212-.565.494-.847.706-1.13.989-2.4,2.189-3.743,3.39-.706.636-1.412,1.271-2.189,1.907s-1.554,1.271-2.4,1.977c-.847.635-1.624,1.412-2.542,2.048s-1.836,1.342-2.754,2.048-1.907,1.412-2.9,2.119c-.989.636-1.977,1.342-3.037,2.048-.989.706-2.048,1.412-3.107,2.048l-3.178,1.907-3.178,1.907c-1.059.565-2.189,1.2-3.248,1.765s-2.119,1.2-3.248,1.695c-1.059.494-2.118,1.059-3.178,1.554s-2.048.989-3.107,1.483c-1.059.424-2.048.847-3.037,1.271s-1.977.847-2.9,1.2a21.493,21.493,0,0,1-2.754.989c-1.765.636-3.39,1.2-4.8,1.765-1.412.424-2.684.847-3.743,1.13-1.059.353-1.836.565-2.4.777a8.842,8.842,0,0,1-.847.282" transform="translate(-163.718 -394)" fill="none" stroke="#41cbfc" stroke-miterlimit="10" stroke-width="1"/>
                  <path id="Path_3248" data-name="Path 3248" d="M385.13,403a7.434,7.434,0,0,1-.635.706,23.814,23.814,0,0,1-1.907,1.907c-1.695,1.624-3.955,4.1-6.991,6.709-1.483,1.342-3.107,2.825-4.873,4.237-.918.706-1.836,1.483-2.754,2.26-.494.353-.918.777-1.412,1.13s-.989.706-1.483,1.13c-.989.777-2.048,1.483-3.107,2.26s-2.119,1.554-3.178,2.26c-1.13.706-2.189,1.483-3.319,2.189l-1.695,1.13-1.695,1.059a172.72,172.72,0,0,1-26.34,13.206c-1.907.706-3.6,1.342-5.155,1.907-.777.282-1.483.565-2.119.777s-1.271.424-1.836.565c-2.26.706-3.531,1.13-3.531,1.13" transform="translate(-166.215 -396.644)" fill="none" stroke="#41cbfc" stroke-miterlimit="10" stroke-width="1"/>
                  <path id="Path_3249" data-name="Path 3249" d="M206.76,444.163h-.847c-.565-.071-1.412,0-2.472-.141-1.059-.071-2.33-.212-3.813-.353-.706-.071-1.554-.141-2.33-.212-.847-.071-1.695-.212-2.613-.353-1.765-.282-3.743-.494-5.791-.847s-4.237-.777-6.426-1.2c-2.189-.565-4.52-1.059-6.85-1.624-2.33-.636-4.59-1.342-6.921-2.048-2.33-.777-4.59-1.554-6.85-2.33L161,434.77l-.847-.353c-.565-.212-1.059-.424-1.624-.636-1.059-.424-2.189-.847-3.178-1.342-.494-.212-1.059-.424-1.554-.636s-.989-.494-1.483-.706c-.989-.494-1.977-.918-2.9-1.342s-1.907-.847-2.754-1.342-1.695-.918-2.472-1.342c-1.624-.847-3.107-1.624-4.378-2.33-1.271-.777-2.4-1.412-3.319-1.977s-1.624-.989-2.119-1.271a6.5,6.5,0,0,0-.565-.353A.873.873,0,0,1,133.6,421" transform="translate(-113.474 -401.933)" fill="none" stroke="#41cbfc" stroke-miterlimit="10" stroke-width="1"/>
                  <g id="Group_1663" data-name="Group 1663" transform="translate(80.363 53.104)">
                    <path id="Path_3250" data-name="Path 3250" d="M277.583,469.2s-.918.212-2.472.635c-1.554.353-3.813.777-6.567,1.342-1.342.282-2.825.494-4.449.777-1.554.212-3.248.565-4.943.777-3.46.353-7.132.847-10.8.989-.918.071-1.836.141-2.754.141-.494,0-.918.071-1.342.071H242.91c-1.836,0-3.6.071-5.367.071h-1.271a7.681,7.681,0,0,1-1.271-.071c-.847,0-1.624-.071-2.472-.071-1.624-.071-3.107-.141-4.449-.141-2.754-.212-5.084-.424-6.709-.565-.777-.071-1.412-.141-1.836-.212a4.359,4.359,0,0,0-.636-.071" transform="translate(-218.9 -469.2)" fill="none" stroke="#41cbfc" stroke-miterlimit="10" stroke-width="1"/>
                  </g>
                  <g id="Group_1664" data-name="Group 1664" transform="translate(103.455 29.024)">
                    <path id="Path_3251" data-name="Path 3251" d="M302.868,435.1s-.777.353-2.119.847-3.319,1.2-5.579,2.048a7.912,7.912,0,0,0-.918.353c-.282.071-.636.212-.918.282-.636.212-1.271.424-1.977.635-1.342.424-2.754.918-4.237,1.271-2.966.777-6.144,1.695-9.392,2.26-.777.141-1.624.353-2.4.494l-1.2.282c-.424.071-.777.141-1.2.212-1.624.282-3.178.494-4.731.777-.353.071-.777.141-1.13.212s-.777.071-1.13.141c-.706.071-1.483.141-2.189.212-1.412.141-2.754.283-3.955.424-2.472.141-4.52.282-5.932.353a16.064,16.064,0,0,1-1.695.071H251.6" transform="translate(-251.6 -435.1)" fill="none" stroke="#41cbfc" stroke-miterlimit="10" stroke-width="1"/>
                  </g>
                </g>
                <path id="Path_3252" data-name="Path 3252" d="M143.9,459.59s2.966-.706,5.861-1.554c2.966-.847,5.791-1.836,5.791-1.836a10.749,10.749,0,0,0,1.271.494c.424.141.918.353,1.412.565.565.212,1.2.494,1.907.706,1.412.494,3.037,1.059,4.731,1.695.847.283,1.765.636,2.683.918s1.907.565,2.825.847,1.907.565,2.825.847c.494.141.918.282,1.412.424.424.141.918.212,1.342.353,1.765.424,3.46.847,4.943,1.2.706.141,1.342.353,1.977.424.565.141,1.13.212,1.554.282a13.45,13.45,0,0,1,1.342.282s1.695,2.048,3.39,4.166c.847,1.059,1.765,1.977,2.472,2.754s1.13,1.271,1.13,1.271.636.071,1.695.212c.565.071,1.2.141,1.907.282.353.071.777.071,1.2.141s.847.071,1.342.141c1.836.141,3.955.353,6.285.565,2.33.141,4.8.212,7.2.283.636,0,1.2.071,1.836.071h1.836c1.2,0,2.4,0,3.531-.071,1.13,0,2.26,0,3.319-.071s2.048-.141,2.966-.212c1.836-.141,3.39-.212,4.449-.282,1.059-.141,1.695-.212,1.695-.212" transform="translate(-76.46 -367.999)" fill="none" stroke="#41cbfc" stroke-miterlimit="10" stroke-width="1"/>
                <path id="Path_3253" data-name="Path 3253" d="M215,422.171s-1.483.141-3.672.424c-.565.071-1.13.141-1.765.212s-1.271.071-1.977.141c-1.412.071-2.825.141-4.308.282-1.483.071-2.966.071-4.308.071-1.412,0-2.683.071-3.743,0-2.189-.071-3.672-.141-3.672-.141s-.494-.494-1.2-1.271c-.353-.353-.777-.847-1.2-1.342s-.918-1.059-1.342-1.554c-1.836-2.118-3.531-4.308-3.531-4.308a8.2,8.2,0,0,1-.918-.071c-.636-.071-1.554-.212-2.683-.353s-2.542-.353-4.166-.565c-1.624-.282-3.39-.636-5.367-.989a26.65,26.65,0,0,1-3.037-.706c-1.059-.282-2.119-.494-3.248-.777-1.13-.212-2.26-.636-3.39-.918-1.13-.353-2.33-.706-3.531-1.059s-2.4-.847-3.6-1.271-2.472-.847-3.672-1.342-2.472-.989-3.672-1.483l-1.836-.777c-.636-.282-1.2-.565-1.836-.847l-3.6-1.695-.918-.424-.847-.494c-.565-.282-1.13-.636-1.765-.918-1.13-.636-2.33-1.2-3.46-1.836s-2.189-1.342-3.248-1.977c-.565-.353-1.059-.636-1.624-.918a4.748,4.748,0,0,1-.777-.494c-.282-.141-.494-.353-.777-.494-.989-.636-1.977-1.342-2.9-1.977-1.907-1.2-3.6-2.613-5.226-3.743a46.75,46.75,0,0,1-4.237-3.39c-.636-.494-1.2-.989-1.765-1.412a7.5,7.5,0,0,1-.777-.636c-.212-.212-.494-.424-.706-.636-1.695-1.554-2.683-2.472-2.683-2.472s-.424,0-1.13.071c-.353,0-.847.071-1.342.071a14.782,14.782,0,0,0-1.695.071H99.467c-1.624,0-3.39,0-5.084-.141-1.695-.071-3.46-.212-5.084-.353s-3.248-.282-4.52-.494c-2.613-.353-4.378-.636-4.378-.636" transform="translate(-57.802 -345.198)" fill="none" stroke="#41cbfc" stroke-miterlimit="10" stroke-width="1"/>
                <path id="Path_3254" data-name="Path 3254" d="M309.8,400.387s.565-.212,1.624-.565c1.059-.424,2.542-.847,4.308-1.624s3.813-1.554,6-2.542c1.059-.494,2.189-1.059,3.319-1.554a18.069,18.069,0,0,1,1.695-.777c.565-.282,1.13-.565,1.695-.918,2.189-1.2,4.52-2.33,6.5-3.6.989-.635,1.977-1.2,2.966-1.765q1.377-.847,2.542-1.695c1.554-1.059,2.9-1.907,3.813-2.542s1.412-1.059,1.412-1.059,2.613.424,5.3.777c1.342.212,2.683.282,3.672.353s1.695.141,1.695.141,1.2-.989,3.037-2.472c.847-.777,1.907-1.695,3.037-2.683s2.33-2.048,3.39-3.178c1.13-1.13,2.26-2.26,3.319-3.248,1.059-1.059,1.907-2.119,2.754-2.966,1.624-1.765,2.684-2.9,2.684-2.9s3.955-.424,8.121-1.059c.494-.071,1.059-.141,1.554-.212s.989-.212,1.483-.282c.989-.212,1.836-.353,2.613-.494,1.554-.353,2.613-.565,2.613-.565a12.724,12.724,0,0,0,.847-1.2,38.14,38.14,0,0,0,2.189-3.178c.918-1.342,1.977-2.9,3.037-4.59s2.118-3.531,3.248-5.367c.565-.918,1.059-1.836,1.554-2.825l1.483-2.754c.494-.918.918-1.765,1.342-2.542.424-.847.777-1.624,1.13-2.33,1.342-2.9,2.26-4.873,2.26-4.873" transform="translate(-125.206 -331.888)" fill="none" stroke="#41cbfc" stroke-miterlimit="10" stroke-width="1"/>
                <path id="Path_3255" data-name="Path 3255" d="M435.93,342.6s-.777,1.695-2.048,4.308c-.565,1.271-1.412,2.754-2.26,4.308-.424.777-.847,1.624-1.271,2.4a17.161,17.161,0,0,1-1.412,2.472c-1.977,3.248-3.884,6.567-5.508,8.9-1.554,2.4-2.613,3.955-2.613,3.955a2.257,2.257,0,0,0,.071.494c0,.353.071.777.071,1.342.071,1.13.141,2.613.212,4.166s.071,3.107.141,4.237a13.355,13.355,0,0,1,0,1.907s-.565.706-1.624,1.977c-.494.636-1.13,1.412-1.836,2.26s-1.483,1.836-2.472,2.9a180.023,180.023,0,0,1-14.265,14.406c-2.683,2.542-5.579,4.8-8.262,6.991-1.342,1.13-2.683,2.048-3.955,3.037-1.271.918-2.472,1.836-3.6,2.683-2.26,1.554-4.237,2.825-5.579,3.743a14.035,14.035,0,0,0-1.554,1.059c-.353.212-.565.353-.565.353" transform="translate(-145.127 -334.62)" fill="none" stroke="#41cbfc" stroke-miterlimit="10" stroke-width="1"/>
                <path id="Path_3256" data-name="Path 3256" d="M406.561,331.3s-.141.282-.353.847c-.141.282-.282.565-.424.918-.212.353-.424.777-.636,1.2-.494.847-.989,1.907-1.624,3.037q-.847,1.695-1.907,3.39c-.706,1.13-1.342,2.26-1.977,3.319-.353.565-.636,1.059-.918,1.554s-.636.918-.918,1.342c-1.13,1.624-1.836,2.754-1.836,2.754s-.989.212-2.542.494-3.6.565-5.649.847-4.025.565-5.579.636c-1.554.141-2.542.212-2.542.212s-.282.353-.777.918-1.13,1.483-2.048,2.472-1.907,2.119-3.037,3.319c-.282.282-.565.636-.847.918l-.918.918c-.636.636-1.271,1.2-1.836,1.836a23.409,23.409,0,0,1-1.907,1.836l-1.907,1.695c-1.271,1.059-2.33,2.189-3.39,2.966-2.048,1.695-3.39,2.825-3.39,2.825" transform="translate(-139.838 -331.3)" fill="none" stroke="#41cbfc" stroke-miterlimit="10" stroke-width="1"/>
                <path id="Path_3257" data-name="Path 3257" d="M108.425,427.757s-1.059-.636-2.613-1.554c-.777-.494-1.695-.989-2.683-1.624-.494-.282-.989-.636-1.483-.918-.494-.353-.989-.706-1.483-.989-2.048-1.342-4.1-2.683-5.579-3.743s-2.472-1.836-2.472-1.836-1.2.071-2.966.212c-.918.071-1.977.141-3.107.141H82.508c-2.4,0-4.873-.071-6.709-.071-1.836-.071-3.037-.141-3.037-.141s-1.695-1.554-4.166-3.813c-1.271-1.13-2.613-2.613-4.1-4.1L62.17,407c-.777-.847-1.483-1.695-2.26-2.542s-1.483-1.695-2.26-2.542c-.353-.424-.777-.847-1.13-1.2l-1.059-1.271c-1.342-1.624-2.613-3.178-3.672-4.52-.565-.636-.989-1.271-1.412-1.836s-.777-1.059-1.059-1.412c-.565-.777-.918-1.271-.918-1.271" transform="translate(-48.4 -348.665)" fill="none" stroke="#41cbfc" stroke-miterlimit="10" stroke-width="1"/>
                <path id="Path_3258" data-name="Path 3258" d="M318.558,460.2s-2.26,1.059-5.649,2.684c-3.46,1.483-7.98,3.46-12.711,5.084-1.2.424-2.33.847-3.531,1.271-1.2.353-2.33.706-3.46,1.059s-2.189.706-3.178.989-1.977.565-2.9.777c-1.836.494-3.319.847-4.378,1.13-.494.141-.918.212-1.2.282a1.976,1.976,0,0,1-.424.071s-2.189,2.754-4.519,5.508c-.565.706-1.2,1.412-1.765,2.048s-1.13,1.2-1.554,1.695c-.918.989-1.554,1.624-1.554,1.624s-.565.071-1.554.282c-.989.141-2.4.424-4.1.636-3.39.353-7.98.989-12.5,1.13l-3.39.212c-1.13.071-2.26.071-3.319.071-2.119,0-4.166.071-5.861.071-3.46-.141-5.72-.212-5.72-.212" transform="translate(-103.316 -369.174)" fill="none" stroke="#41cbfc" stroke-miterlimit="10" stroke-width="1"/>
              </g>
              <g id="Group_1670" data-name="Group 1670">
                <g id="Group_1669" data-name="Group 1669" transform="translate(10.084 25.846)">
                  <path id="Path_3259" data-name="Path 3259" d="M23.1,221.78v-.565c0-.353,0-.918.071-1.695.071-1.412.141-3.46.212-5.932.141-2.472.424-5.3.706-8.4.212-1.554.424-3.107.636-4.731.141-.777.212-1.624.353-2.4s.282-1.624.424-2.4c.282-1.624.636-3.248.918-4.8.141-.777.353-1.554.494-2.33.212-.777.353-1.554.565-2.26.353-1.483.706-2.966,1.059-4.308.424-1.342.777-2.613,1.13-3.813s.636-2.26.918-3.248c.282-.918.636-1.765.847-2.472.494-1.342.777-2.119.777-2.119" transform="translate(-17.224 -75.955)" fill="none" stroke="#41cbfc" stroke-miterlimit="10" stroke-width="1"/>
                  <path id="Path_3260" data-name="Path 3260" d="M64.4,93.688a.873.873,0,0,0,.141-.212,4.79,4.79,0,0,1,.424-.636c.424-.565.989-1.342,1.765-2.4s1.695-2.33,2.825-3.743,2.472-2.966,3.813-4.661A156.949,156.949,0,0,1,96.813,59.58a161.7,161.7,0,0,1,14.335-9.816c1.2-.706,2.33-1.412,3.531-2.119,1.13-.706,2.33-1.271,3.46-1.907s2.189-1.2,3.248-1.765,2.119-1.059,3.107-1.483c.989-.494,1.977-.918,2.9-1.342.424-.212.918-.424,1.342-.636s.847-.353,1.271-.565c1.695-.706,3.107-1.271,4.308-1.836,1.2-.494,2.119-.847,2.825-1.059.636-.212.989-.353.989-.353" transform="translate(-29.359 -36.7)" fill="none" stroke="#41cbfc" stroke-miterlimit="10" stroke-width="1"/>
                  <path id="Path_3261" data-name="Path 3261" d="M38.3,171.244a5.187,5.187,0,0,0,.141-.565,14.6,14.6,0,0,1,.424-1.695c.424-1.412,1.059-3.531,1.765-5.932.353-1.271.847-2.542,1.342-3.955s.989-2.9,1.554-4.378c.636-1.483,1.2-3.037,1.907-4.59.353-.777.636-1.554.989-2.33l1.059-2.33c.706-1.554,1.483-3.107,2.189-4.661.777-1.483,1.554-2.966,2.33-4.378.353-.706.777-1.412,1.13-2.119s.777-1.342,1.13-1.977c.777-1.271,1.483-2.472,2.119-3.531.353-.565.636-1.059.918-1.554a15.979,15.979,0,0,0,.918-1.412c.565-.847,1.059-1.624,1.483-2.26.847-1.271,1.342-1.977,1.342-1.977" transform="translate(-21.69 -61.646)" fill="none" stroke="#41cbfc" stroke-miterlimit="10" stroke-width="1"/>
                  <path id="Path_3262" data-name="Path 3262" d="M37.491,270.468s-.282-1.2-.847-3.319c-.282-1.059-.636-2.33-.989-3.813-.282-1.483-.636-3.178-1.059-5.014s-.706-3.813-1.059-5.932c-.141-1.059-.353-2.119-.494-3.248s-.282-2.26-.353-3.39c-.141-1.13-.282-2.33-.424-3.531s-.141-2.4-.212-3.6-.141-2.472-.212-3.672c-.071-1.271-.071-2.472-.071-3.743s0-2.472-.071-3.743c0-1.271.071-2.472.141-3.672s.071-2.4.141-3.6.212-2.4.282-3.531c.212-2.33.353-4.59.706-6.709.141-1.059.282-2.119.424-3.107s.282-1.977.424-2.9c.706-3.672,1.2-6.709,1.765-8.827.494-2.118.777-3.319.777-3.319" transform="translate(-19.751 -82.272)" fill="none" stroke="#41cbfc" stroke-miterlimit="10" stroke-width="1"/>
                  <path id="Path_3263" data-name="Path 3263" d="M21.785,276.241a6.6,6.6,0,0,0-.282-.918c-.212-.636-.494-1.483-.777-2.613s-.636-2.542-1.059-4.1q-.318-1.165-.636-2.542c-.212-.918-.353-1.836-.565-2.825s-.424-1.977-.636-3.037c-.141-.565-.212-1.059-.353-1.624-.071-.565-.212-1.13-.282-1.695-.353-2.26-.777-4.661-1.13-7.132-.282-2.472-.565-5.084-.777-7.7-.141-2.613-.353-5.3-.424-7.98a154.725,154.725,0,0,1,1.765-29.377c.212-1.977.636-3.813.918-5.438s.565-3.037.777-4.166c.565-2.26.847-3.6.847-3.6" transform="translate(-14.78 -82.184)" fill="none" stroke="#41cbfc" stroke-miterlimit="10" stroke-width="1"/>
                  <path id="Path_3264" data-name="Path 3264" d="M69.6,110.521s.706-.989,1.836-2.754c.565-.847,1.271-1.977,2.119-3.178s1.907-2.542,2.966-3.955c.565-.706,1.059-1.483,1.695-2.26l1.907-2.33c.636-.777,1.342-1.624,2.048-2.472s1.483-1.624,2.26-2.472c1.554-1.695,3.107-3.46,4.8-5.084,1.695-1.695,3.39-3.46,5.226-5.014,1.836-1.624,3.6-3.248,5.438-4.731s3.672-3.037,5.508-4.308c3.6-2.754,7.2-5.084,10.24-7.062,3.107-1.836,5.72-3.46,7.627-4.449,1.836-.989,2.966-1.554,2.966-1.554" transform="translate(-30.887 -43.223)" fill="none" stroke="#41cbfc" stroke-miterlimit="10" stroke-width="1"/>
                  <g id="Group_1667" data-name="Group 1667" transform="translate(6.441 48.655)">
                    <path id="Path_3265" data-name="Path 3265" d="M23.9,158.493s.282-.918.706-2.472c.212-.777.494-1.695.847-2.825q.53-1.589,1.271-3.6c.494-1.271.918-2.754,1.483-4.237s1.2-3.037,1.907-4.661c.353-.777.636-1.624.989-2.472s.777-1.624,1.13-2.472c.777-1.624,1.554-3.319,2.33-5.014a183.8,183.8,0,0,1,10.169-17.584c1.554-2.33,2.825-4.237,3.813-5.508s1.483-2.048,1.483-2.048" transform="translate(-23.9 -105.6)" fill="none" stroke="#41cbfc" stroke-miterlimit="10" stroke-width="1"/>
                  </g>
                  <g id="Group_1668" data-name="Group 1668" transform="translate(19.364 77.397)">
                    <path id="Path_3266" data-name="Path 3266" d="M42.2,196.085s.141-.847.282-2.26c.071-.353.071-.777.141-1.2a12.468,12.468,0,0,1,.282-1.412c.212-.989.424-2.119.636-3.319.424-2.472,1.13-5.226,1.836-8.262.353-1.483.847-3.037,1.271-4.59.212-.777.424-1.554.706-2.33.212-.777.424-1.554.706-2.33,1.13-3.107,2.119-6.214,3.319-9.11.565-1.412,1.13-2.825,1.695-4.1q.953-1.907,1.695-3.6c.494-1.13.989-2.119,1.412-3.037.494-.918.847-1.624,1.2-2.26.706-1.271,1.059-1.977,1.059-1.977" transform="translate(-42.2 -146.3)" fill="none" stroke="#41cbfc" stroke-miterlimit="10" stroke-width="1"/>
                  </g>
                </g>
                <path id="Path_3267" data-name="Path 3267" d="M86.306,47.6s-.212.706-.565,1.836c-.282,1.13-.706,2.613-1.059,4.1-.706,2.966-1.342,5.861-1.342,5.861s-1.554,1.271-3.813,3.107c-.565.494-1.2.989-1.836,1.483-.636.565-1.271,1.13-1.977,1.765-1.342,1.271-2.825,2.542-4.308,3.884-2.754,2.825-5.649,5.508-7.556,7.768-1.977,2.189-3.319,3.672-3.319,3.672s-2.613.424-5.226.918c-1.342.282-2.683.565-3.672.706a10.292,10.292,0,0,0-1.2.282,1.976,1.976,0,0,1-.424.071s-1.483,1.977-3.672,4.943c-1.13,1.483-2.33,3.248-3.6,5.155-.636.989-1.271,1.977-1.977,2.966-.636.989-1.271,2.119-1.907,3.107L36.944,102.4c-.282.494-.636,1.059-.918,1.554s-.565,1.059-.847,1.554c-1.059,2.048-2.119,3.955-2.966,5.579s-1.412,3.037-1.907,4.025c-.424.989-.706,1.554-.706,1.554" transform="translate(-9.05 -14.057)" fill="none" stroke="#41cbfc" stroke-miterlimit="10" stroke-width="1"/>
                <path id="Path_3268" data-name="Path 3268" d="M64.4,128.757s.141-.353.353-.918a8.22,8.22,0,0,0,.424-1.059c.212-.424.424-.847.636-1.342.494-.989.989-2.189,1.624-3.39.282-.636.565-1.271.918-1.907l1.059-1.907c.706-1.271,1.412-2.613,2.048-3.813.706-1.2,1.342-2.26,1.907-3.248.565-.918,1.059-1.765,1.342-2.26.141-.282.282-.494.353-.636a.874.874,0,0,1,.141-.212s2.825-.636,5.508-1.13c1.342-.282,2.683-.494,3.743-.636s1.695-.212,1.695-.212.777-1.059,2.189-2.966c.353-.494.706-.989,1.13-1.554s.918-1.13,1.412-1.765,1.059-1.271,1.624-1.977a12.279,12.279,0,0,1,.918-1.059c.353-.353.636-.706.989-1.059a134.467,134.467,0,0,1,9.533-9.675c.918-.847,1.836-1.695,2.825-2.542s1.977-1.624,3.037-2.472c1.977-1.695,4.166-3.248,6.285-4.8a131.944,131.944,0,0,1,25.493-14.265c.918-.353,1.836-.777,2.613-1.13.847-.353,1.695-.636,2.4-.918,1.554-.565,2.825-1.059,3.955-1.412,2.26-.706,3.531-1.059,3.531-1.059s.706-1.483,1.977-3.743c1.2-2.189,2.966-5.155,4.8-8.121,1.907-2.825,3.884-5.791,5.508-7.909s2.754-3.46,2.754-3.46" transform="translate(-19.275 -10.119)" fill="none" stroke="#41cbfc" stroke-miterlimit="10" stroke-width="1"/>
                <path id="Path_3269" data-name="Path 3269" d="M51.95,207.7s-.141.636-.353,1.695c-.071.565-.212,1.2-.353,1.977s-.212,1.624-.353,2.542a117.761,117.761,0,0,0-1.271,13.841c-.071,1.271-.071,2.542-.141,3.743v3.672c0,1.2,0,2.33.071,3.39s.141,2.119.212,3.037c.141,1.907.141,3.46.353,4.59l.212,1.695s-1.695,2.048-3.319,4.237c-1.554,2.189-3.107,4.449-3.107,4.449s.071.424.141,1.059c.141.706.212,1.695.494,2.825.212,1.13.494,2.542.847,3.955.141.706.282,1.483.494,2.26s.424,1.483.565,2.26c.424,1.554.777,3.037,1.2,4.52.424,1.412.847,2.754,1.2,3.884s.636,2.048.847,2.754c.212.635.353.989.353.989s-1.624,3.672-3.178,7.627c-1.412,3.813-2.754,7.909-2.754,7.909a2.97,2.97,0,0,1,.141.353,8.076,8.076,0,0,0,.424.989c.424.847.989,2.048,1.695,3.531.353.706.706,1.483,1.13,2.33s.918,1.695,1.342,2.542c.494.918.989,1.765,1.483,2.754.494.918.989,1.907,1.554,2.754,1.13,1.836,2.189,3.672,3.248,5.367,1.13,1.695,2.189,3.248,3.037,4.59.424.636.847,1.271,1.2,1.836.353.494.706.989.989,1.342.565.777.847,1.2.847,1.2" transform="translate(-13.252 -61.098)" fill="none" stroke="#41cbfc" stroke-miterlimit="10" stroke-width="1"/>
                <path id="Path_3270" data-name="Path 3270" d="M38.563,343.572a2.092,2.092,0,0,1-.212-.283,4.442,4.442,0,0,1-.565-.777c-.494-.706-1.13-1.695-1.907-2.9-.424-.565-.847-1.271-1.271-1.907-.424-.706-.918-1.412-1.412-2.189-.918-1.554-1.907-3.178-2.9-4.8l-.706-1.2-.636-1.271c-.424-.847-.847-1.624-1.271-2.4s-.847-1.554-1.2-2.26c-.212-.353-.353-.706-.565-1.059-.141-.353-.353-.706-.494-.989-1.2-2.542-2.048-4.308-2.048-4.308s-2.754-1.271-5.367-2.754c-2.683-1.412-5.367-2.966-5.367-2.966s-.353-.847-.918-2.33-1.342-3.672-2.26-6.285c-.424-1.342-.847-2.754-1.342-4.237-.212-.777-.494-1.554-.706-2.33a25.239,25.239,0,0,1-.706-2.472c-.847-3.319-1.836-6.921-2.542-10.522-.353-1.836-.777-3.6-1.059-5.367l-.847-5.3c-.141-.847-.282-1.695-.353-2.542s-.212-1.624-.282-2.4c-.141-1.554-.353-3.037-.494-4.449-.141-1.342-.212-2.613-.282-3.743s-.141-2.119-.212-2.9C.571,255.018.5,254.1.5,254.1" transform="translate(-0.5 -74.731)" fill="none" stroke="#41cbfc" stroke-miterlimit="10" stroke-width="1"/>
                <path id="Path_3271" data-name="Path 3271" d="M76.469,331.643s-.706-1.13-1.836-2.754c-.565-.847-1.2-1.836-1.836-2.9s-1.342-2.189-1.977-3.319c-1.342-2.33-2.542-4.661-3.46-6.426-.847-1.766-1.412-2.966-1.412-2.966s.353-.989.847-2.472c.282-.706.565-1.554.918-2.472s.777-1.836,1.13-2.825c.777-1.907,1.624-3.743,2.189-5.155.282-.706.636-1.271.777-1.695a5.551,5.551,0,0,0,.282-.636s-.636-1.624-1.483-4.166c-.424-1.271-.847-2.754-1.342-4.308a25.242,25.242,0,0,1-.706-2.472l-.636-2.542L67.289,282c-.212-.847-.353-1.695-.565-2.472-.353-1.624-.706-3.107-.918-4.449-.424-2.613-.706-4.378-.706-4.378" transform="translate(-19.481 -79.609)" fill="none" stroke="#41cbfc" stroke-miterlimit="10" stroke-width="1"/>
                <path id="Path_3272" data-name="Path 3272" d="M130.6,33.573a7.338,7.338,0,0,0,.706-.424c.494-.282,1.13-.706,1.907-1.13,1.624-.847,3.743-2.048,5.932-3.178,2.189-1.059,4.378-2.119,6.073-2.9.847-.424,1.554-.706,2.048-.918s.777-.353.777-.353.565-1.059,1.342-2.613c.424-.777.918-1.695,1.412-2.754.282-.494.565-.989.847-1.554a17.866,17.866,0,0,1,.918-1.554c1.2-2.048,2.472-4.166,3.46-5.72.989-1.624,1.695-2.613,1.695-2.613s2.189-.706,5.438-1.695c1.624-.565,3.531-.989,5.579-1.554,2.048-.494,4.237-1.13,6.5-1.554,2.189-.424,4.449-.918,6.5-1.342,2.119-.353,4.025-.636,5.72-.918s3.107-.424,4.1-.565A12.228,12.228,0,0,1,193.1.1" transform="translate(-38.727 -0.1)" fill="none" stroke="#41cbfc" stroke-miterlimit="10" stroke-width="1"/>
                <path id="Path_3273" data-name="Path 3273" d="M5.9,193.877s.212-2.472.565-6.214c.141-1.836.494-4.025.777-6.356.141-1.13.353-2.33.494-3.6.212-1.2.424-2.4.636-3.672.847-4.943,2.119-9.745,2.966-13.347l1.765-6s-.353-.847-.847-2.048c-.494-1.271-1.059-2.9-1.624-4.59s-1.13-3.39-1.554-4.731c-.212-.636-.353-1.2-.494-1.554a5.5,5.5,0,0,1-.212-.636l2.119-5.3q.53-1.165,1.059-2.542c.353-.918.847-1.836,1.271-2.825.918-1.907,1.907-4.025,2.825-6.073,2.119-4.025,4.237-8.121,6.073-11.016.847-1.483,1.624-2.683,2.119-3.531a5.3,5.3,0,0,0,.565-.989,3.666,3.666,0,0,0,.212-.353" transform="translate(-2.087 -31.951)" fill="none" stroke="#41cbfc" stroke-miterlimit="10" stroke-width="1"/>
              </g>
              <g id="Group_1674" data-name="Group 1674" transform="translate(156.277 0.636)">
                <g id="Group_1673" data-name="Group 1673" transform="translate(54.305 12.852)">
                  <path id="Path_3274" data-name="Path 3274" d="M358.9,52s.706.424,1.907,1.13,3.037,1.765,5.014,3.178c2.048,1.342,4.449,2.9,6.921,4.8,1.2.918,2.542,1.836,3.813,2.825,1.271,1.059,2.542,2.048,3.813,3.107.636.494,1.271,1.059,1.907,1.554s1.2,1.059,1.836,1.624c1.2,1.059,2.4,2.189,3.531,3.178.565.494,1.13,1.059,1.624,1.554l1.554,1.554c.989.989,1.907,1.977,2.825,2.825,1.624,1.836,3.037,3.319,4.025,4.378.494.565.847.918,1.13,1.271a1.994,1.994,0,0,1,.353.424" transform="translate(-316.388 -28.837)" fill="none" stroke="#41cbfc" stroke-miterlimit="10" stroke-width="1"/>
                  <path id="Path_3275" data-name="Path 3275" d="M447.3,150.7s.141.353.424.989l.565,1.13c.212.494.424.989.706,1.624.494,1.2,1.13,2.613,1.836,4.308a10,10,0,0,0,.565,1.271c.141.424.353.918.494,1.412.353.918.706,1.977,1.059,2.966.353,1.059.777,2.119,1.13,3.248s.706,2.33,1.13,3.531c.353,1.2.777,2.472,1.13,3.743s.706,2.613,1.059,3.955c.777,2.683,1.271,5.508,1.836,8.333.353,1.412.565,2.9.777,4.308.212,1.483.494,2.9.706,4.378a156.108,156.108,0,0,1,.989,32.413c-.212,2.189-.353,4.237-.494,6-.212,1.765-.424,3.319-.636,4.59q-.212,1.907-.424,2.966l-.212,1.059" transform="translate(-342.362 -57.838)" fill="none" stroke="#41cbfc" stroke-miterlimit="10" stroke-width="1"/>
                  <path id="Path_3276" data-name="Path 3276" d="M395.9,90.8l1.695,1.695c1.059,1.059,2.613,2.542,4.308,4.52.847.989,1.765,1.977,2.754,3.107.989,1.059,1.907,2.33,2.966,3.531,2.119,2.472,4.1,5.226,6.144,7.98a153.73,153.73,0,0,1,9.887,16.03c.635,1.13,1.2,2.189,1.695,3.107.424.918.847,1.765,1.2,2.472.636,1.342.989,2.119.989,2.119" transform="translate(-327.26 -40.238)" fill="none" stroke="#41cbfc" stroke-miterlimit="10" stroke-width="1"/>
                  <path id="Path_3277" data-name="Path 3277" d="M298.7,36.5l.847.212c.282.071.636.141,1.059.282s.847.282,1.412.424c1.059.282,2.33.706,3.743,1.13.706.212,1.483.424,2.33.706.777.282,1.624.565,2.542.918.847.282,1.765.636,2.754.989.918.353,1.907.636,2.9,1.059,1.977.777,4.1,1.624,6.214,2.542,2.118.989,4.308,1.977,6.5,3.037,2.189,1.13,4.378,2.33,6.567,3.46,2.189,1.2,4.308,2.542,6.356,3.743,1.059.636,2.048,1.342,3.037,1.977s1.977,1.342,2.966,1.977,1.907,1.342,2.825,1.977,1.765,1.342,2.613,1.977c1.766,1.271,3.248,2.542,4.731,3.743,2.9,2.33,5.155,4.449,6.779,5.932,1.624,1.412,2.472,2.33,2.472,2.33" transform="translate(-298.7 -24.283)" fill="none" stroke="#41cbfc" stroke-miterlimit="10" stroke-width="1"/>
                  <path id="Path_3278" data-name="Path 3278" d="M299.1,19.2s1.271.282,3.6.847c1.13.212,2.472.706,4.1,1.13,1.554.494,3.319.989,5.226,1.554a168.588,168.588,0,0,1,27.046,11.581c1.2.636,2.4,1.271,3.531,1.907,1.13.706,2.26,1.342,3.39,2.048s2.26,1.342,3.39,2.048l3.178,2.119c1.059.706,2.048,1.412,3.107,2.048.989.706,1.907,1.412,2.9,2.119.918.706,1.836,1.342,2.683,1.977.424.353.847.636,1.271.989s.777.636,1.2.989c1.554,1.271,2.966,2.472,4.237,3.46.282.282.636.494.918.777a7.474,7.474,0,0,0,.847.706c.494.494.989.918,1.412,1.342,1.765,1.554,2.754,2.472,2.754,2.472" transform="translate(-298.818 -19.2)" fill="none" stroke="#41cbfc" stroke-miterlimit="10" stroke-width="1"/>
                  <path id="Path_3279" data-name="Path 3279" d="M432,147.8s.141.282.424.777.636,1.271,1.059,2.189c.918,1.907,2.26,4.59,3.6,7.98.706,1.695,1.483,3.46,2.189,5.438.353.989.706,1.977,1.13,3.037.212.494.353,1.059.565,1.554.141.565.353,1.059.494,1.624,1.412,4.308,2.684,9.039,3.743,13.77a153.547,153.547,0,0,1,3.46,26.411c0,1.836.071,3.46.071,4.943v2.048c0,.636-.071,1.2-.071,1.765-.071,2.119-.141,3.319-.141,3.319" transform="translate(-337.867 -56.986)" fill="none" stroke="#41cbfc" stroke-miterlimit="10" stroke-width="1"/>
                  <g id="Group_1671" data-name="Group 1671" transform="translate(80.716 45.69)">
                    <path id="Path_3280" data-name="Path 3280" d="M413,83.9l.494.494c.282.282.777.777,1.271,1.342,1.059,1.2,2.613,2.9,4.52,5.014.847,1.059,1.836,2.26,2.825,3.46.989,1.271,2.118,2.472,3.107,3.955,1.059,1.412,2.118,2.825,3.178,4.308a25.545,25.545,0,0,1,1.554,2.26c.494.777,1.059,1.554,1.554,2.33s1.059,1.554,1.554,2.33.989,1.554,1.412,2.33c.918,1.554,1.836,3.107,2.754,4.59.847,1.483,1.624,2.966,2.4,4.378.706,1.412,1.483,2.683,2.048,3.955,1.2,2.472,2.189,4.59,2.9,6.073.636,1.483.989,2.33.989,2.33" transform="translate(-413 -83.9)" fill="none" stroke="#41cbfc" stroke-miterlimit="10" stroke-width="1"/>
                  </g>
                  <g id="Group_1672" data-name="Group 1672" transform="translate(52.045 44.136)">
                    <path id="Path_3281" data-name="Path 3281" d="M372.4,81.7s.706.494,1.765,1.412c1.13.918,2.683,2.26,4.59,3.813a153.317,153.317,0,0,1,12.852,12.711c.565.636,1.13,1.2,1.624,1.836.565.636,1.059,1.271,1.554,1.907,1.059,1.271,2.048,2.472,3.037,3.672.918,1.2,1.836,2.4,2.683,3.6.847,1.13,1.695,2.189,2.33,3.248,1.342,2.048,2.542,3.743,3.319,4.943.706,1.271,1.13,1.977,1.13,1.977" transform="translate(-372.4 -81.7)" fill="none" stroke="#41cbfc" stroke-miterlimit="10" stroke-width="1"/>
                  </g>
                </g>
                <path id="Path_3282" data-name="Path 3282" d="M471.866,190.111l-.353-.353-.989-.989c-.847-.847-1.907-1.907-3.037-2.966-1.059-1.059-2.189-2.119-2.966-2.825-.424-.353-.777-.706-.989-.918a4.329,4.329,0,0,1-.424-.353s-.282-1.977-.777-4.873c-.141-.706-.212-1.554-.424-2.33-.141-.847-.353-1.695-.565-2.613s-.353-1.836-.565-2.754-.424-1.907-.635-2.9c-.494-1.907-.989-3.813-1.483-5.579s-1.059-3.39-1.483-4.8-.777-2.613-1.059-3.39-.494-1.271-.494-1.271.918-2.472,1.836-5.014c.424-1.271.918-2.542,1.2-3.531s.494-1.624.494-1.624-.918-2.26-2.4-5.649c-.777-1.695-1.695-3.6-2.684-5.72-.282-.494-.494-1.059-.777-1.554s-.565-1.059-.847-1.624c-.565-1.059-1.13-2.119-1.765-3.248-1.13-2.189-2.4-4.308-3.6-6.285-.565-.989-1.2-1.977-1.695-2.825-.565-.918-1.13-1.695-1.624-2.472-1.059-1.554-1.907-2.825-2.472-3.743a12.17,12.17,0,0,0-.989-1.412" transform="translate(-286.001 -31.998)" fill="none" stroke="#41cbfc" stroke-miterlimit="10" stroke-width="1"/>
                <path id="Path_3283" data-name="Path 3283" d="M403.4,125.2s.847,1.2,2.189,2.966a29.593,29.593,0,0,1,2.119,3.107c.777,1.13,1.554,2.4,2.4,3.6.777,1.271,1.483,2.542,2.189,3.743l1.059,1.695c.353.565.565,1.059.847,1.554,1.059,1.977,1.765,3.248,1.765,3.248s-.212.636-.494,1.695c-.282.989-.777,2.33-1.271,3.672-.918,2.613-1.907,5.155-1.907,5.155s.141.282.353.847.565,1.412,1.059,2.472c.989,2.119,2.048,5.3,3.39,9.039.565,1.907,1.271,3.955,1.907,6.144l.847,3.39a16.481,16.481,0,0,0,.494,1.765c.141.565.282,1.2.424,1.836.282,1.2.494,2.472.777,3.743l.212.918.141.989c.071.636.212,1.271.282,1.907.212,1.271.424,2.613.565,3.884.141,1.342.283,2.613.424,3.955a127.475,127.475,0,0,1-.353,29.165c-.141.989-.282,1.907-.353,2.825-.141.918-.212,1.765-.353,2.542-.282,1.624-.565,2.966-.777,4.1a14.624,14.624,0,0,0-.282,1.554c-.141.424-.212.847-.282,1.13-.141.636-.212.918-.212.918s.918,1.412,2.26,3.531c.353.565.706,1.13,1.059,1.765s.706,1.271,1.13,1.977c.777,1.412,1.554,2.9,2.4,4.449.424.777.777,1.554,1.2,2.33.353.777.706,1.554,1.059,2.26.706,1.483,1.271,2.9,1.836,4.166.494,1.271.989,2.26,1.271,3.037.282.706.424,1.13.424,1.13" transform="translate(-275.159 -37.493)" fill="none" stroke="#41cbfc" stroke-miterlimit="10" stroke-width="1"/>
                <path id="Path_3284" data-name="Path 3284" d="M329.068,75.69s-1.977-1.624-4.873-4.025c-1.483-1.2-3.319-2.472-5.155-3.884l-1.483-1.059c-.494-.353-.989-.706-1.554-1.059-1.059-.706-2.119-1.412-3.107-2.119q-3.284-2.013-6.356-3.813c-2.119-1.13-4.025-2.119-5.72-3.037l-5.72-2.683s-.212-.636-.636-1.554-.918-2.119-1.412-3.39c-1.059-2.472-2.26-5.014-2.26-5.014s-.353-.141-.989-.353-1.554-.565-2.683-.918c-1.13-.424-2.4-.847-3.813-1.342-1.412-.424-2.966-.847-4.449-1.342-.777-.212-1.483-.424-2.26-.636s-1.483-.353-2.189-.565c-1.412-.353-2.754-.636-3.955-.918-1.13-.282-2.119-.424-2.825-.565l-1.059-.212s-.636-.847-1.483-2.048c-.918-1.2-2.189-2.966-3.46-4.52-1.342-1.624-2.683-3.178-3.743-4.378-.494-.636-.989-1.13-1.271-1.483s-.494-.565-.494-.565S254,24,250.753,23.716c-1.624-.141-3.46-.212-5.508-.282-1.977-.071-4.166-.212-6.285-.141-1.059,0-2.119,0-3.178.071-1.059,0-2.119,0-3.107.071-1.977.141-3.884.212-5.508.353-.424,0-.777.071-1.13.071-.353.071-.706.071-1.059.141q-.953.106-1.695.212c-.918.071-1.483.141-1.483.141" transform="translate(-221.8 -7.544)" fill="none" stroke="#41cbfc" stroke-miterlimit="10" stroke-width="1"/>
                <path id="Path_3285" data-name="Path 3285" d="M224.2,7.5s.494-.071,1.271-.141c.847-.071,2.048-.141,3.46-.212s3.107-.212,4.873-.282c1.765,0,3.672-.071,5.579-.071.918,0,1.907-.071,2.825,0,.918,0,1.836.071,2.754.071,1.765.071,3.46.141,4.873.212,2.825.212,4.731.424,4.731.424s.636-.424,1.554-1.059,2.189-1.483,3.531-2.26C262.192,2.624,264.876,1,264.876,1s.918.141,2.542.353c1.554.282,3.884.706,6.567,1.2l2.119.424c.706.141,1.483.353,2.26.565,1.554.353,3.178.777,4.873,1.2.847.212,1.695.424,2.542.706s1.695.494,2.613.777c1.765.494,3.531.989,5.3,1.624s3.46,1.2,5.226,1.836c.847.282,1.695.565,2.542.918s1.624.636,2.4.989c1.624.636,3.178,1.271,4.59,1.907.706.282,1.412.636,2.118.918s1.342.636,1.977.918c1.271.565,2.4,1.13,3.39,1.624s1.907.918,2.613,1.271c1.412.777,2.26,1.2,2.26,1.2" transform="translate(-222.505 -1)" fill="none" stroke="#41cbfc" stroke-miterlimit="10" stroke-width="1"/>
                <path id="Path_3286" data-name="Path 3286" d="M231.4,45.211s1.342-.071,3.319-.212c1.977-.212,4.661-.141,7.274-.212a18.47,18.47,0,0,1,1.977,0c.635,0,1.271.071,1.907.071,1.271.071,2.4.071,3.39.141a19.891,19.891,0,0,1,2.4.141,8.2,8.2,0,0,0,.918.071s.706.777,1.695,1.977c.494.565,1.059,1.271,1.695,2.048.282.353.636.777.918,1.13.282.424.636.847.918,1.2,1.271,1.624,2.472,3.319,3.319,4.52q.636.953,1.059,1.483a2.119,2.119,0,0,1,.353.565s1.765.353,4.308.847c.636.141,1.342.212,2.119.424.706.212,1.483.353,2.33.565a25.343,25.343,0,0,0,2.472.565c.424.071.847.212,1.271.282l1.271.353c1.695.494,3.39.989,4.943,1.483,1.554.565,3.037,1.059,4.237,1.483.636.212,1.2.424,1.695.565.494.212.918.353,1.271.494.706.282,1.13.494,1.13.494" transform="translate(-224.621 -13.856)" fill="none" stroke="#41cbfc" stroke-miterlimit="10" stroke-width="1"/>
                <path id="Path_3287" data-name="Path 3287" d="M473.86,242.9s0,1.2.071,3.037c-.071,1.836-.141,4.308-.212,6.709,0,1.2-.141,2.472-.212,3.6s-.212,2.189-.283,3.107-.141,1.695-.212,2.189a7.7,7.7,0,0,0-.071.847s2.542,3.884,5.084,8.121c2.33,4.166,4.59,8.615,4.59,8.615a1.976,1.976,0,0,1-.071.424,11.1,11.1,0,0,0-.212,1.13c-.212.989-.565,2.33-.989,4.025-.212.847-.424,1.695-.636,2.684-.212.918-.494,1.907-.777,2.966-.565,2.048-1.271,4.237-1.907,6.356-.706,2.119-1.483,4.308-2.189,6.285-.353.989-.636,1.977-1.059,2.9q-.53,1.377-1.059,2.542c-1.271,3.107-2.118,5.226-2.118,5.226" transform="translate(-295.197 -72.076)" fill="none" stroke="#41cbfc" stroke-miterlimit="10" stroke-width="1"/>
                <path id="Path_3288" data-name="Path 3288" d="M379.5,44.1s.494.353,1.412.918c.424.282.989.706,1.624,1.059.282.212.636.424.989.706s.706.494,1.059.777c1.483,1.13,3.248,2.4,5.155,3.813,1.836,1.412,3.743,3.037,5.649,4.59.494.424.989.777,1.412,1.2.494.424.918.847,1.342,1.271.918.847,1.765,1.624,2.683,2.4.847.777,1.695,1.554,2.472,2.26l2.119,2.119,3.178,3.178c.706.777,1.13,1.271,1.13,1.271s3.46.494,7.062,1.2c1.836.282,3.531.706,4.873.989s2.189.494,2.189.494.353.424.989,1.2,1.554,1.836,2.542,3.248,2.189,2.966,3.46,4.731c.636.847,1.271,1.765,1.907,2.683s1.271,1.907,1.907,2.825c.636.989,1.271,1.907,1.907,2.825.565.989,1.13,1.907,1.695,2.825,1.059,1.836,2.189,3.531,2.966,5.084,1.624,3.037,2.683,5.014,2.683,5.014" transform="translate(-268.136 -13.664)" fill="none" stroke="#41cbfc" stroke-miterlimit="10" stroke-width="1"/>
              </g>
            </g>
          </g>
        </g>
      </g>
      <g id="XMLID_1_3" data-name="XMLID_1_" transform="translate(74 145.153)" style="mix-blend-mode: screen;isolation: isolate">
        <g id="XMLID_34_" transform="translate(1.119 0)">
          <g id="XMLID_35_">
            <g id="Group_1662" data-name="Group 1662">
              <g id="Group_1661" data-name="Group 1661">
                <g id="Group_1656" data-name="Group 1656" transform="translate(0 118.244)">
                  <g id="Group_1655" data-name="Group 1655" transform="translate(23.965 34.367)">
                    <path id="Path_3214" data-name="Path 3214" d="M233.706,300a2.608,2.608,0,0,1-.461.329c-.263.2-.724.527-1.251.856s-1.251.79-1.975,1.251c-.79.527-1.646,1.053-2.633,1.58a98.663,98.663,0,0,1-14.879,7.11A102.4,102.4,0,0,1,196.64,315.6c-1.119.2-2.107.395-3.029.527s-1.712.2-2.37.329c-1.317.2-2.041.263-2.041.263" transform="translate(-89.72 -255.428)" fill="none" stroke="#5fc6ff" stroke-miterlimit="10" stroke-width="0.517"/>
                    <path id="Path_3215" data-name="Path 3215" d="M99.131,289.184a8.605,8.605,0,0,1-.922-.263c-.593-.2-1.448-.527-2.568-.856s-2.436-.922-4.016-1.514c-1.514-.593-3.226-1.383-5.069-2.173A101.363,101.363,0,0,1,74.508,277.6a100.332,100.332,0,0,1-12.443-9.81,95.538,95.538,0,0,1-18.237-23.241,24.465,24.465,0,0,1-1.383-2.568c-.4-.79-.79-1.58-1.185-2.3-.724-1.514-1.251-2.831-1.778-3.884s-.79-1.975-1.053-2.568a4.96,4.96,0,0,1-.329-.922" transform="translate(-38.1 -232.3)" fill="none" stroke="#5fc6ff" stroke-miterlimit="10" stroke-width="0.517"/>
                    <path id="Path_3216" data-name="Path 3216" d="M181.459,312.017s-.724.2-2.041.461c-.658.132-1.448.4-2.37.527s-1.975.329-3.094.527a91.111,91.111,0,0,1-16.723,1.119,89.633,89.633,0,0,1-16.657-1.975c-1.119-.263-2.107-.461-3.029-.724-.922-.2-1.646-.461-2.3-.658-1.317-.4-2.041-.593-2.041-.593" transform="translate(-70.589 -259.084)" fill="none" stroke="#5fc6ff" stroke-miterlimit="10" stroke-width="0.517"/>
                    <path id="Path_3217" data-name="Path 3217" d="M261.8,250.1a6.832,6.832,0,0,1-.4.658c-.263.461-.658,1.053-1.185,1.909a32.907,32.907,0,0,1-1.975,2.9c-.79,1.119-1.646,2.37-2.7,3.621-.527.658-1.053,1.317-1.58,2.041-.593.658-1.185,1.383-1.843,2.107a7.576,7.576,0,0,0-.922,1.119c-.329.329-.658.724-.988,1.053-.658.724-1.383,1.448-2.107,2.238a113.659,113.659,0,0,1-9.81,8.493,95.018,95.018,0,0,1-10.929,6.979c-1.843.922-3.621,1.909-5.333,2.634-.856.395-1.712.79-2.5,1.119-.856.329-1.646.658-2.436.922a37.629,37.629,0,0,1-4.279,1.514c-1.251.461-2.436.79-3.358,1.053s-1.646.461-2.173.593l-.79.2" transform="translate(-95.63 -238.381)" fill="none" stroke="#5fc6ff" stroke-miterlimit="10" stroke-width="0.517"/>
                    <path id="Path_3218" data-name="Path 3218" d="M276.69,256.4s-.658,1.119-1.712,3.029q-.889,1.383-2.173,3.358c-.856,1.317-1.843,2.7-2.963,4.214-.527.79-1.185,1.514-1.778,2.3-.658.79-1.251,1.646-1.975,2.436-1.448,1.646-2.9,3.358-4.543,5.07-1.58,1.712-3.424,3.358-5.2,5.069-1.843,1.646-3.753,3.292-5.728,4.806-1.975,1.58-4.016,3.029-6.057,4.411-2.107,1.317-4.148,2.7-6.189,3.819-2.041,1.185-4.082,2.238-5.991,3.226-.988.461-1.909.922-2.831,1.317s-1.843.856-2.7,1.185c-1.778.658-3.358,1.383-4.806,1.843s-2.7.922-3.753,1.251-1.909.527-2.436.724a4.118,4.118,0,0,0-.856.263" transform="translate(-98.534 -240.533)" fill="none" stroke="#5fc6ff" stroke-miterlimit="10" stroke-width="0.517"/>
                    <path id="Path_3219" data-name="Path 3219" d="M115.292,287.378s-.263-.066-.724-.2c-.263-.066-.527-.132-.922-.2-.329-.066-.724-.2-1.185-.329-.922-.263-1.975-.527-3.226-.922s-2.633-.856-4.082-1.383a87.447,87.447,0,0,1-20.475-10.995,86.392,86.392,0,0,1-16.854-16.064c-.988-1.251-1.909-2.37-2.633-3.489-.724-1.053-1.448-1.975-1.909-2.765-.988-1.58-1.58-2.436-1.58-2.436" transform="translate(-46.162 -237.869)" fill="none" stroke="#5fc6ff" stroke-miterlimit="10" stroke-width="0.517"/>
                    <g id="Group_1653" data-name="Group 1653" transform="translate(54.184 61.887)">
                      <path id="Path_3220" data-name="Path 3220" d="M175.243,330.448s-.856.132-2.37.4c-.724.132-1.646.329-2.7.461s-2.238.263-3.555.461a105.432,105.432,0,0,1-19.093.329,98.96,98.96,0,0,1-18.829-3.16c-1.251-.329-2.436-.658-3.424-.987a24.957,24.957,0,0,1-2.634-.856c-1.448-.461-2.238-.79-2.238-.79" transform="translate(-120.4 -326.3)" fill="none" stroke="#5fc6ff" stroke-miterlimit="10" stroke-width="0.517"/>
                    </g>
                    <g id="Group_1654" data-name="Group 1654" transform="translate(78.281 42.202)">
                      <path id="Path_3221" data-name="Path 3221" d="M201.374,296.4s-2.568,1.185-6.584,2.568a85.054,85.054,0,0,1-15.143,3.687,88.256,88.256,0,0,1-15.6.79c-1.053,0-2.041-.132-2.9-.2s-1.646-.132-2.238-.2c-1.251-.132-1.909-.263-1.909-.263" transform="translate(-157 -296.4)" fill="none" stroke="#5fc6ff" stroke-miterlimit="10" stroke-width="0.517"/>
                    </g>
                  </g>
                  <path id="Path_3222" data-name="Path 3222" d="M51.9,291.2s3.094.329,6.057.461c3.029.132,5.925.066,5.925.066a1.943,1.943,0,0,0,.263.2,6.586,6.586,0,0,0,.658.593c.593.527,1.448,1.251,2.5,2.173.527.461,1.119.922,1.712,1.383s1.251.988,1.975,1.514c.658.527,1.383,1.053,2.107,1.58s1.514,1.053,2.238,1.58c1.514,1.053,3.094,1.975,4.543,2.9,1.514.856,2.9,1.646,4.082,2.37,2.436,1.251,4.082,2.107,4.082,2.107a2.122,2.122,0,0,1,.132.4c.132.263.263.658.461,1.119.4.922.856,2.107,1.383,3.358.263.593.527,1.251.79,1.778.263.593.527,1.053.724,1.514.461.922.724,1.514.724,1.514s.527.2,1.514.593c.922.395,2.37.856,4.016,1.448A108.158,108.158,0,0,0,110.3,323.2a109.915,109.915,0,0,0,12.838,1.778c1.778.132,3.226.263,4.279.263s1.646.066,1.646.066" transform="translate(-18.85 -218.055)" fill="none" stroke="#5fc6ff" stroke-miterlimit="10" stroke-width="0.517"/>
                  <path id="Path_3223" data-name="Path 3223" d="M128.761,260.5h-1.843a8.388,8.388,0,0,1-1.251-.066c-.922-.066-1.975,0-3.16-.132-1.119-.066-2.37-.2-3.621-.263-1.185-.132-2.436-.329-3.555-.461-1.119-.2-2.173-.4-3.094-.527a19.711,19.711,0,0,1-2.173-.461l-.79-.2s-1.185-2.37-2.107-4.806c-.461-1.185-.922-2.37-1.251-3.292s-.527-1.514-.527-1.514a5.376,5.376,0,0,1-.724-.263,20.112,20.112,0,0,1-1.975-.724,64.748,64.748,0,0,1-6.913-3.094,68.731,68.731,0,0,1-18.434-13.694,69.426,69.426,0,0,1-7.7-9.612,62.116,62.116,0,0,1-5.2-9.349c-.329-.724-.658-1.383-.922-2.041s-.527-1.317-.724-1.909c-.527-1.185-.79-2.239-1.119-3.094-.132-.461-.263-.79-.4-1.185-.132-.329-.2-.658-.263-.856-.132-.461-.2-.724-.2-.724s-.4-.132-.988-.4c-.658-.263-1.58-.593-2.633-1.053a79.82,79.82,0,0,1-7.9-3.95c-.724-.4-1.448-.856-2.107-1.251s-1.317-.856-1.975-1.317c-1.317-.856-2.5-1.712-3.555-2.436C39.683,190.319,38.3,189.2,38.3,189.2" transform="translate(-14.204 -183.209)" fill="none" stroke="#5fc6ff" stroke-miterlimit="10" stroke-width="0.517"/>
                  <path id="Path_3224" data-name="Path 3224" d="M210.5,251.3a12.879,12.879,0,0,1,1.383-.461c.856-.329,2.041-.79,3.489-1.383a89.527,89.527,0,0,0,10.139-5.267,80.241,80.241,0,0,0,9.217-6.715q.889-.79,1.58-1.383c.461-.4.856-.79,1.185-1.119.658-.658,1.053-.988,1.053-.988s.658.066,1.58.2c.922.066,2.173.2,3.424.263s2.568.132,3.555.132h1.646s.2-.263.593-.724c.2-.2.461-.527.724-.79.263-.329.527-.724.856-1.119a69.882,69.882,0,0,0,4.411-6.057c.4-.593.724-1.119,1.119-1.712.4-.527.724-1.119,1.053-1.646.658-1.119,1.251-2.107,1.712-3.029.922-1.843,1.58-3.029,1.58-3.029s.263-.066.658-.2.988-.263,1.646-.527a24.941,24.941,0,0,0,2.37-.79,28.219,28.219,0,0,0,2.765-.988c1.843-.724,3.753-1.514,5.135-2.107,1.383-.658,2.3-1.119,2.3-1.119a12.741,12.741,0,0,1,.461-1.251c.132-.4.329-.922.461-1.448.132-.593.329-1.185.527-1.909s.395-1.448.658-2.238q.3-1.185.593-2.568c.461-1.778.79-3.687,1.119-5.6a21.86,21.86,0,0,0,.395-2.9c.132-.922.263-1.909.329-2.765.132-1.843.263-3.489.4-5,.066-2.9.132-4.872.132-4.872" transform="translate(-73.032 -180.134)" fill="none" stroke="#5fc6ff" stroke-miterlimit="10" stroke-width="0.517"/>
                  <path id="Path_3225" data-name="Path 3225" d="M315.067,184.3v1.251A12.217,12.217,0,0,1,315,187c-.066.527-.066,1.185-.132,1.843a90.714,90.714,0,0,1-1.119,9.876c-.132.922-.329,1.778-.461,2.634a9.328,9.328,0,0,1-.263,1.317c-.066.4-.2.856-.263,1.251-.395,1.646-.724,3.226-1.053,4.543-.724,2.633-1.251,4.345-1.251,4.345s1.185,2.7,2.3,5.53c.593,1.448,1.053,2.831,1.448,3.95s.593,1.843.593,1.843a5.172,5.172,0,0,1-.263.593c-.132.4-.395.988-.724,1.712s-.724,1.58-1.185,2.568a16.853,16.853,0,0,1-.724,1.58c-.263.527-.593,1.119-.856,1.712-.592,1.185-1.251,2.5-2.041,3.884-.79,1.317-1.58,2.765-2.436,4.214-.922,1.448-1.843,2.9-2.831,4.411-.988,1.448-2.041,2.9-3.094,4.411a112.253,112.253,0,0,1-13.167,14.748c-3.95,3.687-6.781,5.925-6.781,5.925" transform="translate(-97.014 -181.535)" fill="none" stroke="#5fc6ff" stroke-miterlimit="10" stroke-width="0.517"/>
                  <path id="Path_3226" data-name="Path 3226" d="M277.829,186.8s-.066,1.119-.2,2.765c-.066.856-.2,1.778-.329,2.831s-.263,2.173-.461,3.226c-.2,1.119-.329,2.173-.593,3.226-.263.988-.461,1.975-.658,2.765s-.4,1.448-.527,1.975c-.132.461-.2.724-.2.724s-.922.4-2.239.988c-1.383.527-3.226,1.185-5,1.778-1.843.593-3.687,1.053-5,1.383a14.125,14.125,0,0,1-1.646.4c-.4.066-.658.132-.658.132s-.132.329-.4.856-.527,1.317-1.053,2.238c-.461.922-.988,1.975-1.646,3.094-.329.527-.658,1.119-.988,1.712s-.724,1.119-1.119,1.712c-.724,1.185-1.58,2.238-2.3,3.292s-1.514,1.975-2.173,2.765c-1.317,1.58-2.238,2.568-2.238,2.568" transform="translate(-85.979 -182.389)" fill="none" stroke="#5fc6ff" stroke-miterlimit="10" stroke-width="0.517"/>
                  <path id="Path_3227" data-name="Path 3227" d="M33.565,239.09l-1.646-2.3c-.527-.658-.988-1.514-1.58-2.436s-1.185-1.843-1.778-2.831c-1.119-1.975-2.3-3.95-3.029-5.465-.4-.79-.724-1.383-.922-1.843s-.329-.724-.329-.724-1.053-.4-2.7-1.119c-1.646-.658-3.819-1.646-5.925-2.7-1.053-.527-2.107-1.119-3.16-1.646-.988-.527-1.909-1.053-2.7-1.514-1.58-.922-2.633-1.58-2.633-1.58s-.2-.527-.461-1.448-.658-2.238-1.119-3.884c-.132-.4-.2-.79-.329-1.251s-.2-.856-.329-1.317c-.2-.922-.461-1.909-.658-2.9-.263-.988-.461-2.041-.658-3.16-.2-1.053-.4-2.173-.593-3.226-.329-2.173-.593-4.411-.79-6.452s-.329-4.016-.4-5.662c-.066-3.292-.132-5.53-.132-5.53" transform="translate(-1.7 -180.1)" fill="none" stroke="#5fc6ff" stroke-miterlimit="10" stroke-width="0.517"/>
                  <path id="Path_3228" data-name="Path 3228" d="M213.7,323.8s-.527.329-1.448.79c-.922.527-2.238,1.251-3.819,2.041a117.946,117.946,0,0,1-12.114,5.267c-2.3.79-4.543,1.58-6.715,2.173-1.053.329-2.107.593-3.094.856s-1.975.461-2.831.658-1.712.4-2.37.527c-.724.132-1.317.263-1.843.329-1.053.2-1.646.263-1.646.263s-.593.658-1.383,1.712c-.856,1.053-2.041,2.3-3.292,3.621s-2.5,2.633-3.489,3.555-1.646,1.58-1.646,1.58-.593.066-1.58.132-2.436.132-4.082.2c-.856,0-1.778.066-2.765.066s-1.975,0-3.028-.066c-1.053,0-2.173-.066-3.292-.066-1.119-.066-2.238-.132-3.358-.263-1.119-.066-2.238-.132-3.358-.263s-2.173-.263-3.226-.4c-2.107-.263-4.082-.658-5.728-.922-.856-.132-1.58-.263-2.3-.4q-.988-.2-1.778-.4c-.988-.2-1.514-.329-1.514-.329" transform="translate(-46.214 -229.192)" fill="none" stroke="#5fc6ff" stroke-miterlimit="10" stroke-width="0.517"/>
                </g>
                <g id="Group_1660" data-name="Group 1660" transform="translate(7.769)">
                  <g id="Group_1659" data-name="Group 1659" transform="translate(15.933 15.978)">
                    <path id="Path_3229" data-name="Path 3229" d="M89.5,51.623a2.6,2.6,0,0,1,.461-.329c.263-.2.724-.527,1.251-.856s1.251-.79,1.975-1.251c.79-.527,1.646-1.053,2.634-1.58A98.669,98.669,0,0,1,110.7,40.5a102.411,102.411,0,0,1,15.867-4.477c1.119-.2,2.107-.4,3.029-.527s1.712-.2,2.37-.329c1.317-.2,2.041-.263,2.041-.263" transform="translate(-55.396 -28.23)" fill="none" stroke="#5fc6ff" stroke-miterlimit="10" stroke-width="0.517"/>
                    <path id="Path_3230" data-name="Path 3230" d="M215.6,41.7a8.607,8.607,0,0,1,.922.263c.592.2,1.448.527,2.568.856s2.436.922,4.016,1.514c1.514.593,3.226,1.383,5.069,2.173a101.36,101.36,0,0,1,12.048,6.781,100.337,100.337,0,0,1,12.443,9.81A95.537,95.537,0,0,1,270.9,86.338a24.459,24.459,0,0,1,1.383,2.568c.395.79.79,1.58,1.185,2.3.724,1.514,1.251,2.831,1.778,3.884s.79,1.975,1.053,2.568a4.961,4.961,0,0,1,.329.922" transform="translate(-98.475 -30.553)" fill="none" stroke="#5fc6ff" stroke-miterlimit="10" stroke-width="0.517"/>
                    <path id="Path_3231" data-name="Path 3231" d="M139.9,46.214s.724-.2,2.041-.461c.658-.132,1.448-.4,2.37-.527s1.975-.329,3.094-.527a91.108,91.108,0,0,1,16.723-1.119,89.629,89.629,0,0,1,16.657,1.975c1.119.263,2.107.461,3.029.724.922.2,1.646.461,2.3.658,1.317.4,2.041.593,2.041.593" transform="translate(-72.614 -31.182)" fill="none" stroke="#5fc6ff" stroke-miterlimit="10" stroke-width="0.517"/>
                    <path id="Path_3232" data-name="Path 3232" d="M55.8,88.848a6.842,6.842,0,0,1,.4-.658c.263-.461.658-1.053,1.185-1.909a32.923,32.923,0,0,1,1.975-2.9c.79-1.119,1.646-2.37,2.7-3.621.527-.658,1.053-1.317,1.58-2.041.593-.658,1.185-1.383,1.843-2.107A7.578,7.578,0,0,0,66.4,74.5c.329-.329.658-.724.988-1.053.658-.724,1.383-1.448,2.107-2.238a113.652,113.652,0,0,1,9.81-8.493,95.027,95.027,0,0,1,10.929-6.979c1.843-.922,3.621-1.909,5.333-2.633.856-.4,1.712-.79,2.5-1.119.856-.329,1.646-.658,2.436-.922a37.617,37.617,0,0,1,4.279-1.514c1.251-.461,2.436-.79,3.358-1.053s1.646-.461,2.173-.593l.79-.2" transform="translate(-43.883 -32.603)" fill="none" stroke="#5fc6ff" stroke-miterlimit="10" stroke-width="0.517"/>
                    <path id="Path_3233" data-name="Path 3233" d="M37.7,78.825s.658-1.119,1.712-3.029q.889-1.383,2.173-3.358c.856-1.317,1.843-2.7,2.963-4.214.527-.79,1.185-1.514,1.778-2.3.658-.79,1.251-1.646,1.975-2.436,1.448-1.646,2.9-3.358,4.543-5.069,1.58-1.712,3.424-3.358,5.2-5.069,1.843-1.646,3.753-3.292,5.728-4.806,1.975-1.58,4.016-3.029,6.057-4.411,2.107-1.317,4.148-2.7,6.189-3.819,2.041-1.185,4.082-2.238,5.991-3.226.988-.461,1.909-.922,2.831-1.317s1.843-.856,2.7-1.185c1.778-.658,3.358-1.383,4.806-1.843s2.7-.922,3.753-1.251,1.909-.527,2.436-.724a4.119,4.119,0,0,0,.856-.263" transform="translate(-37.7 -26.727)" fill="none" stroke="#5fc6ff" stroke-miterlimit="10" stroke-width="0.517"/>
                    <path id="Path_3234" data-name="Path 3234" d="M203.3,52.8s.263.066.724.2c.263.066.527.132.922.2.329.066.724.2,1.185.329.922.263,1.975.527,3.226.922s2.634.856,4.082,1.383a87.449,87.449,0,0,1,20.475,10.995,86.4,86.4,0,0,1,16.854,16.064c.988,1.251,1.909,2.37,2.634,3.489.724,1.053,1.448,1.975,1.909,2.765.988,1.58,1.58,2.436,1.58,2.436" transform="translate(-94.273 -34.345)" fill="none" stroke="#5fc6ff" stroke-miterlimit="10" stroke-width="0.517"/>
                    <g id="Group_1657" data-name="Group 1657" transform="translate(69.129)">
                      <path id="Path_3235" data-name="Path 3235" d="M142.7,26.7s.856-.132,2.37-.4c.724-.132,1.646-.329,2.7-.461s2.238-.263,3.555-.461a105.434,105.434,0,0,1,19.093-.329,98.965,98.965,0,0,1,18.83,3.16c1.251.329,2.436.658,3.424.988a24.957,24.957,0,0,1,2.633.856c1.448.461,2.238.79,2.238.79" transform="translate(-142.7 -24.769)" fill="none" stroke="#5fc6ff" stroke-miterlimit="10" stroke-width="0.517"/>
                    </g>
                    <g id="Group_1658" data-name="Group 1658" transform="translate(55.435 18.647)">
                      <path id="Path_3236" data-name="Path 3236" d="M121.9,60.208s2.568-1.185,6.584-2.568a85.063,85.063,0,0,1,15.143-3.687,88.261,88.261,0,0,1,15.6-.79c1.053,0,2.041.132,2.9.2s1.646.132,2.238.2c1.251.132,1.909.263,1.909.263" transform="translate(-121.9 -53.092)" fill="none" stroke="#5fc6ff" stroke-miterlimit="10" stroke-width="0.517"/>
                    </g>
                  </g>
                  <path id="Path_3237" data-name="Path 3237" d="M254.461,51.4s-3.094-.329-6.057-.461c-3.029-.132-5.925-.066-5.925-.066a1.953,1.953,0,0,0-.263-.2,6.6,6.6,0,0,0-.658-.593c-.593-.527-1.448-1.251-2.5-2.173-.527-.461-1.119-.922-1.712-1.383s-1.251-.988-1.975-1.514c-.658-.527-1.383-1.053-2.107-1.58s-1.514-1.053-2.238-1.58c-1.514-1.053-3.094-1.975-4.543-2.9-1.514-.856-2.9-1.646-4.082-2.37-2.436-1.251-4.082-2.107-4.082-2.107a2.122,2.122,0,0,1-.132-.4c-.132-.263-.263-.658-.461-1.119-.4-.922-.856-2.107-1.383-3.358-.263-.593-.527-1.251-.79-1.778-.263-.593-.527-1.053-.724-1.514-.461-.922-.724-1.514-.724-1.514s-.527-.2-1.514-.593c-.922-.4-2.37-.856-4.016-1.448a108.176,108.176,0,0,0-12.509-3.358,109.917,109.917,0,0,0-12.838-1.778c-1.778-.132-3.226-.263-4.279-.263S177.3,17.3,177.3,17.3" transform="translate(-69.458 -6.239)" fill="none" stroke="#5fc6ff" stroke-miterlimit="10" stroke-width="0.517"/>
                  <path id="Path_3238" data-name="Path 3238" d="M170.7,62.9h1.843a8.4,8.4,0,0,1,1.251.066c.922.066,1.975,0,3.16.132,1.119.066,2.37.2,3.621.263,1.185.132,2.436.329,3.555.461,1.119.2,2.173.4,3.094.527a19.729,19.729,0,0,1,2.173.461l.79.2s1.185,2.37,2.107,4.806c.461,1.185.922,2.37,1.251,3.292s.527,1.514.527,1.514a5.38,5.38,0,0,1,.724.263,20.1,20.1,0,0,1,1.975.724,64.765,64.765,0,0,1,6.913,3.094,69.069,69.069,0,0,1,26.137,23.306,62.119,62.119,0,0,1,5.2,9.349c.329.724.658,1.383.922,2.041s.527,1.317.724,1.909c.527,1.185.79,2.238,1.119,3.094.132.461.263.79.4,1.185.132.329.2.658.263.856.132.461.2.724.2.724s.4.132.988.4c.658.263,1.58.593,2.633,1.053a79.806,79.806,0,0,1,7.9,3.95c.724.4,1.448.856,2.107,1.251s1.317.856,1.975,1.317c1.317.856,2.5,1.712,3.555,2.436,1.975,1.514,3.358,2.633,3.358,2.633" transform="translate(-67.204 -21.817)" fill="none" stroke="#5fc6ff" stroke-miterlimit="10" stroke-width="0.517"/>
                  <path id="Path_3239" data-name="Path 3239" d="M99.448,72.1a12.884,12.884,0,0,1-1.383.461c-.856.329-2.041.79-3.489,1.383A89.536,89.536,0,0,0,84.438,79.21a80.247,80.247,0,0,0-9.217,6.715q-.889.79-1.58,1.383c-.461.4-.856.79-1.185,1.119-.658.658-1.053.988-1.053.988s-.658-.066-1.58-.2c-.922-.066-2.173-.2-3.424-.263s-2.568-.132-3.555-.132H61.2s-.2.263-.593.724c-.2.2-.461.527-.724.79-.263.329-.527.724-.856,1.119a69.884,69.884,0,0,0-4.411,6.057c-.4.593-.724,1.119-1.119,1.712-.4.527-.724,1.119-1.053,1.646-.658,1.119-1.251,2.107-1.712,3.029-.922,1.843-1.58,3.029-1.58,3.029s-.263.066-.658.2-.988.263-1.646.527a24.943,24.943,0,0,0-2.37.79,28.21,28.21,0,0,0-2.765.988c-1.843.724-3.753,1.514-5.135,2.107-1.383.658-2.3,1.119-2.3,1.119a12.74,12.74,0,0,1-.461,1.251c-.132.4-.329.922-.461,1.448-.132.593-.329,1.185-.527,1.909s-.4,1.448-.658,2.238q-.3,1.185-.593,2.568c-.461,1.778-.79,3.687-1.119,5.6a21.862,21.862,0,0,0-.4,2.9c-.132.922-.263,1.909-.329,2.765-.132,1.843-.263,3.489-.4,5-.066,2.9-.132,4.872-.132,4.872" transform="translate(-18.864 -24.96)" fill="none" stroke="#5fc6ff" stroke-miterlimit="10" stroke-width="0.517"/>
                  <path id="Path_3240" data-name="Path 3240" d="M13.5,131.589v-1.251a12.216,12.216,0,0,1,.066-1.448c.066-.527.066-1.185.132-1.843a90.717,90.717,0,0,1,1.119-9.876c.132-.922.329-1.778.461-2.634a9.322,9.322,0,0,1,.263-1.317c.066-.4.2-.856.263-1.251.4-1.646.724-3.226,1.053-4.543.724-2.634,1.251-4.345,1.251-4.345s-1.185-2.7-2.3-5.53c-.593-1.448-1.053-2.831-1.448-3.95s-.593-1.843-.593-1.843a5.175,5.175,0,0,1,.263-.593c.132-.4.4-.988.724-1.712s.724-1.58,1.185-2.568a16.834,16.834,0,0,1,.724-1.58c.263-.527.593-1.119.856-1.712.593-1.185,1.251-2.5,2.041-3.884.79-1.317,1.58-2.765,2.436-4.214.922-1.448,1.843-2.9,2.831-4.411.988-1.448,2.041-2.9,3.094-4.411A112.252,112.252,0,0,1,41.086,51.925C45.036,48.238,47.867,46,47.867,46" transform="translate(-13.5 -16.044)" fill="none" stroke="#5fc6ff" stroke-miterlimit="10" stroke-width="0.517"/>
                  <path id="Path_3241" data-name="Path 3241" d="M53.3,152.524s.066-1.119.2-2.765c.066-.856.2-1.778.329-2.831s.263-2.173.461-3.226c.2-1.119.329-2.173.593-3.226.263-.988.461-1.975.658-2.765s.4-1.448.527-1.975c.132-.461.2-.724.2-.724s.922-.395,2.238-.988c1.383-.527,3.226-1.185,5-1.778,1.843-.593,3.687-1.053,5-1.383a14.12,14.12,0,0,1,1.646-.4c.4-.066.658-.132.658-.132s.132-.329.4-.856.527-1.317,1.053-2.238c.461-.922.988-1.975,1.646-3.094.329-.527.658-1.119.988-1.712s.724-1.119,1.119-1.712c.724-1.185,1.58-2.238,2.3-3.292s1.514-1.975,2.173-2.765c1.317-1.58,2.238-2.568,2.238-2.568" transform="translate(-27.097 -38.625)" fill="none" stroke="#5fc6ff" stroke-miterlimit="10" stroke-width="0.517"/>
                  <path id="Path_3242" data-name="Path 3242" d="M296.3,90.6l1.646,2.3c.527.658.988,1.514,1.58,2.436s1.185,1.843,1.778,2.831c1.119,1.975,2.3,3.95,3.029,5.465.395.79.724,1.383.922,1.843s.329.724.329.724,1.053.4,2.7,1.119c1.646.658,3.819,1.646,5.925,2.7,1.053.527,2.107,1.119,3.16,1.646.988.527,1.909,1.053,2.7,1.514,1.58.922,2.634,1.58,2.634,1.58s.2.527.461,1.448.658,2.238,1.119,3.884c.132.4.2.79.329,1.251s.2.856.329,1.317c.2.922.461,1.909.658,2.9.263.988.461,2.041.658,3.16.2,1.053.4,2.173.593,3.226.329,2.173.593,4.411.79,6.452.132,2.041.329,4.016.395,5.662.066,3.292.132,5.53.132,5.53" transform="translate(-110.112 -31.28)" fill="none" stroke="#5fc6ff" stroke-miterlimit="10" stroke-width="0.517"/>
                  <path id="Path_3243" data-name="Path 3243" d="M90.3,24.267s.527-.329,1.448-.79c.922-.527,2.238-1.251,3.819-2.041a117.94,117.94,0,0,1,12.114-5.267c2.3-.79,4.543-1.58,6.715-2.173,1.053-.329,2.107-.593,3.094-.856s1.975-.461,2.831-.658,1.712-.4,2.37-.527c.724-.132,1.317-.263,1.843-.329,1.053-.2,1.646-.263,1.646-.263s.593-.658,1.383-1.712c.856-1.053,2.041-2.3,3.292-3.621s2.5-2.633,3.489-3.555S135.991.9,135.991.9s.593-.066,1.58-.132,2.436-.132,4.082-.2c.856,0,1.778-.066,2.765-.066s1.975,0,3.029.066c1.053,0,2.173.066,3.292.066C151.858.7,152.977.763,154.1.9c1.119.066,2.238.132,3.358.263s2.173.263,3.226.4c2.107.263,4.082.658,5.728.922.856.132,1.58.329,2.3.4q.988.2,1.778.4c.988.2,1.514.329,1.514.329" transform="translate(-39.737 -0.5)" fill="none" stroke="#5fc6ff" stroke-miterlimit="10" stroke-width="0.517"/>
                </g>
              </g>
            </g>
          </g>
        </g>
        <path id="XMLID_33_" d="M195.152,18.77l-2.9-.329a.492.492,0,0,1-.461-.593l.066-.593a.492.492,0,0,1,.593-.461l2.9.329a.492.492,0,0,1,.461.593l-.066.593A.513.513,0,0,1,195.152,18.77Z" transform="translate(-65.519 -6.063)" fill="#60c8ff"/>
        <path id="XMLID_32_" d="M130.778,40.271l-2.831.856a.543.543,0,0,1-.658-.329l-.2-.593a.543.543,0,0,1,.329-.658l2.831-.856a.543.543,0,0,1,.658.329l.2.593A.44.44,0,0,1,130.778,40.271Z" transform="translate(-43.412 -13.541)" fill="#60c8ff"/>
        <path id="XMLID_31_" d="M5.053,220.338l-.658-3.621a.722.722,0,0,1,.527-.79l.724-.132a.722.722,0,0,1,.79.527l.658,3.621a.722.722,0,0,1-.527.79l-.724.132A.683.683,0,0,1,5.053,220.338Z" transform="translate(-1.498 -74.047)" fill="#60c8ff"/>
        <path id="XMLID_30_" d="M165.994,316.846l-2.633-.132a.509.509,0,0,1-.461-.527v-.527a.509.509,0,0,1,.527-.461l2.633.132a.509.509,0,0,1,.461.527v.527A.434.434,0,0,1,165.994,316.846Z" transform="translate(-55.651 -108.01)" fill="#60c8ff"/>
        <path id="XMLID_29_" d="M313.293,204.922l.461-2.633c.066-.263.263-.461.527-.4l.527.066c.263.066.461.263.4.527l-.461,2.634c-.066.263-.263.461-.527.4l-.527-.066A.422.422,0,0,1,313.293,204.922Z" transform="translate(-107.025 -69.297)" fill="#60c8ff"/>
        <path id="XMLID_28_" d="M271.859,75.149l-2.041-1.778a.507.507,0,0,1-.066-.658l.4-.4a.506.506,0,0,1,.658-.066l2.041,1.778a.506.506,0,0,1,.066.658l-.395.4A.4.4,0,0,1,271.859,75.149Z" transform="translate(-92.123 -24.981)" fill="#60c8ff"/>
        <path id="XMLID_27_" d="M259.572,307.379l2.238-1.514a.511.511,0,0,1,.658.132l.329.461a.511.511,0,0,1-.132.658l-2.238,1.514a.511.511,0,0,1-.658-.132l-.329-.461A.4.4,0,0,1,259.572,307.379Z" transform="translate(-88.593 -104.797)" fill="#60c8ff"/>
        <path id="XMLID_26_" d="M38.669,72.626l-1.646,2.107a.44.44,0,0,1-.658.066l-.461-.329a.44.44,0,0,1-.066-.658L37.484,71.7a.44.44,0,0,1,.658-.066l.461.329C38.8,72.1,38.8,72.362,38.669,72.626Z" transform="translate(-12.203 -24.762)" fill="#60c8ff"/>
        <path id="XMLID_25_" d="M66.007,45.553A1.053,1.053,0,1,1,64.953,44.5,1.04,1.04,0,0,1,66.007,45.553Z" transform="translate(-21.83 -15.532)" fill="#5fc6ff"/>
        <path id="XMLID_24_" d="M215.507,40.853a1.053,1.053,0,1,1-1.053-1.053A1.04,1.04,0,0,1,215.507,40.853Z" transform="translate(-72.903 -13.926)" fill="#5fc6ff"/>
        <path id="XMLID_23_" d="M37.707,104.251a1.053,1.053,0,1,1-1.053-1.053A1,1,0,0,1,37.707,104.251Z" transform="translate(-12.162 -35.582)" fill="#5fc6ff"/>
        <path id="XMLID_22_" d="M296.207,88.753a1.053,1.053,0,1,1-1.053-1.053A1.083,1.083,0,0,1,296.207,88.753Z" transform="translate(-100.472 -30.29)" fill="#5fc6ff"/>
        <path id="XMLID_21_" d="M227.607,33.653a1.053,1.053,0,1,1-1.053-1.053A1.04,1.04,0,0,1,227.607,33.653Z" transform="translate(-77.037 -11.466)" fill="#5fc6ff"/>
        <path id="XMLID_20_" d="M291.507,248.453a1.053,1.053,0,1,1-1.053-1.053A1.04,1.04,0,0,1,291.507,248.453Z" transform="translate(-98.867 -84.847)" fill="#5fc6ff"/>
        <path id="XMLID_19_" d="M293.607,185.153a1.053,1.053,0,1,1-1.053-1.053A1.04,1.04,0,0,1,293.607,185.153Z" transform="translate(-99.584 -63.222)" fill="#5fc6ff"/>
        <path id="XMLID_18_" d="M177.207,296.853a1.053,1.053,0,1,1-1.053-1.053A1.083,1.083,0,0,1,177.207,296.853Z" transform="translate(-59.819 -101.382)" fill="#5fc6ff"/>
        <path id="XMLID_17_" d="M120.207,325.453a1.053,1.053,0,1,1-1.053-1.053A1.04,1.04,0,0,1,120.207,325.453Z" transform="translate(-40.346 -111.153)" fill="#5fc6ff"/>
        <path id="XMLID_16_" d="M188.607,324.953a1.053,1.053,0,1,1-1.053-1.053A1.083,1.083,0,0,1,188.607,324.953Z" transform="translate(-63.714 -110.982)" fill="#5fc6ff"/>
        <path id="XMLID_15_" d="M280.307,314.253a1.053,1.053,0,1,1-1.053-1.053A1.083,1.083,0,0,1,280.307,314.253Z" transform="translate(-95.041 -107.326)" fill="#5fc6ff"/>
        <path id="XMLID_14_" d="M2.107,178.153a1.04,1.04,0,0,1-1.053,1.053,1.053,1.053,0,0,1,0-2.107A1.04,1.04,0,0,1,2.107,178.153Z" transform="translate(0 -60.831)" fill="#5fc6ff"/>
        <path id="XMLID_13_" d="M51.407,270.353a1.053,1.053,0,1,1-1.053-1.053A1.083,1.083,0,0,1,51.407,270.353Z" transform="translate(-16.842 -92.329)" fill="#5fc6ff"/>
        <path id="XMLID_12_" d="M50.807,290.253a1.053,1.053,0,1,1-1.053-1.053A1.083,1.083,0,0,1,50.807,290.253Z" transform="translate(-16.637 -99.127)" fill="none" stroke="#5fc6ff" stroke-miterlimit="10" stroke-width="0.517"/>
        <path id="XMLID_11_" d="M37.507,187.753a1.053,1.053,0,1,1-1.053-1.053A1.083,1.083,0,0,1,37.507,187.753Z" transform="translate(-12.094 -64.111)" fill="none" stroke="#5fc6ff" stroke-miterlimit="10" stroke-width="0.517"/>
        <path id="XMLID_10_" d="M137.907,70.753a1.053,1.053,0,1,1-1.053-1.053A1.04,1.04,0,0,1,137.907,70.753Z" transform="translate(-46.393 -24.141)" fill="none" stroke="#5fc6ff" stroke-miterlimit="10" stroke-width="0.517"/>
        <path id="XMLID_9_" d="M216.507,5.153A1.053,1.053,0,1,1,215.453,4.1,1.04,1.04,0,0,1,216.507,5.153Z" transform="translate(-73.245 -1.73)" fill="none" stroke="#5fc6ff" stroke-miterlimit="10" stroke-width="0.517"/>
        <path id="XMLID_8_" d="M169.707,62.353a1.053,1.053,0,1,1-1.053-1.053A1.04,1.04,0,0,1,169.707,62.353Z" transform="translate(-57.257 -21.271)" fill="none" stroke="#5fc6ff" stroke-miterlimit="10" stroke-width="0.517"/>
        <path id="XMLID_6_" d="M296.607,68.753a1.053,1.053,0,1,1-1.053-1.053A1.04,1.04,0,0,1,296.607,68.753Z" transform="translate(-100.609 -23.457)" fill="none" stroke="#5fc6ff" stroke-miterlimit="10" stroke-width="0.517"/>
        <path id="XMLID_5_" d="M286.007,112.353a1.053,1.053,0,1,1-1.053-1.053A1.04,1.04,0,0,1,286.007,112.353Z" transform="translate(-96.988 -38.352)" fill="none" stroke="#5fc6ff" stroke-miterlimit="10" stroke-width="0.517"/>
        <path id="XMLID_5_2" data-name="XMLID_5_" d="M286.007,112.353a1.053,1.053,0,1,1-1.053-1.053A1.04,1.04,0,0,1,286.007,112.353Z" transform="translate(-58.012 6.681)" fill="none" stroke="#5fc6ff" stroke-miterlimit="10" stroke-width="0.517"/>
        <path id="XMLID_4_" d="M333.307,182.353a1.053,1.053,0,1,1-1.053-1.053A1.083,1.083,0,0,1,333.307,182.353Z" transform="translate(-113.147 -62.266)" fill="none" stroke="#5fc6ff" stroke-miterlimit="10" stroke-width="0.517"/>
        <path id="XMLID_3_" d="M309.407,128.853a1.053,1.053,0,1,1-1.053-1.053A1.04,1.04,0,0,1,309.407,128.853Z" transform="translate(-104.982 -43.989)" fill="none" stroke="#5fc6ff" stroke-miterlimit="10" stroke-width="0.517"/>
        <path id="XMLID_2_2" data-name="XMLID_2_" d="M209.707,288.153a1.053,1.053,0,1,1-1.053-1.053A1.04,1.04,0,0,1,209.707,288.153Z" transform="translate(-70.922 -98.41)" fill="none" stroke="#5fc6ff" stroke-miterlimit="10" stroke-width="0.517"/>
      </g>
      <ellipse id="XMLID_1_4" data-name="XMLID_1_" cx="22.953" cy="22.953" rx="22.953" ry="22.953" transform="translate(277.988 241.51)" fill="url(#radial-gradient)" style="mix-blend-mode: color-dodge;isolation: isolate"/>
      <ellipse id="XMLID_1_5" data-name="XMLID_1_" cx="22.953" cy="22.953" rx="22.953" ry="22.953" transform="translate(83.988 313.51)" fill="url(#radial-gradient)" style="mix-blend-mode: color-dodge;isolation: isolate"/>
      <ellipse id="XMLID_1_6" data-name="XMLID_1_" cx="22.953" cy="22.953" rx="22.953" ry="22.953" transform="translate(234.678 329.51)" fill="url(#radial-gradient)" style="mix-blend-mode: color-dodge;isolation: isolate"/>
      <ellipse id="XMLID_1_7" data-name="XMLID_1_" cx="22.953" cy="22.953" rx="22.953" ry="22.953" transform="translate(75.678 246.51)" fill="url(#radial-gradient)" style="mix-blend-mode: color-dodge;isolation: isolate"/>
      <ellipse id="XMLID_1_8" data-name="XMLID_1_" cx="22.953" cy="22.953" rx="22.953" ry="22.953" transform="translate(52.725 239.51)" fill="url(#radial-gradient)" style="mix-blend-mode: color-dodge;isolation: isolate"/>
      <ellipse id="XMLID_1_9" data-name="XMLID_1_" cx="13.953" cy="13.953" rx="13.953" ry="13.953" transform="translate(200.988 158.51)" fill="url(#radial-gradient)" style="mix-blend-mode: color-dodge;isolation: isolate"/>
      <ellipse id="XMLID_1_10" data-name="XMLID_1_" cx="13.953" cy="13.953" rx="13.953" ry="13.953" transform="translate(201.988 134.51)" fill="url(#radial-gradient)" style="mix-blend-mode: color-dodge;isolation: isolate"/>
      <ellipse id="XMLID_1_11" data-name="XMLID_1_" cx="22.953" cy="22.953" rx="22.953" ry="22.953" transform="translate(94.453 152.51)" fill="url(#radial-gradient)" style="mix-blend-mode: color-dodge;isolation: isolate"/>
    </g>
  </g>
</svg>
