<svg xmlns="http://www.w3.org/2000/svg" xmlns:xlink="http://www.w3.org/1999/xlink" width="96" height="96" viewBox="0 0 96 96">
  <defs>
    <linearGradient id="linear-gradient" x1="0.5" x2="0.5" y2="1" gradientUnits="objectBoundingBox">
      <stop offset="0" stop-color="#0057dc"/>
      <stop offset="0.202" stop-color="#036fe6"/>
      <stop offset="0.537" stop-color="#0890f3"/>
      <stop offset="0.815" stop-color="#0ba5fc"/>
      <stop offset="1" stop-color="#0cacff"/>
    </linearGradient>
    <filter id="Ellipse_7" x="0" y="0" width="96" height="96" filterUnits="userSpaceOnUse">
      <feOffset dy="8" input="SourceAlpha"/>
      <feGaussianBlur stdDeviation="6" result="blur"/>
      <feFlood flood-color="#0065ff" flood-opacity="0.161"/>
      <feComposite operator="in" in2="blur"/>
      <feComposite in="SourceGraphic"/>
    </filter>
  </defs>
  <g id="Trade_Button" data-name="Trade Button" transform="translate(-140 -692)">
    <g transform="matrix(1, 0, 0, 1, 140, 692)" filter="url(#Ellipse_7)">
      <circle id="Ellipse_7-2" data-name="Ellipse 7" cx="30" cy="30" r="30" transform="translate(18 10)" fill="url(#linear-gradient)"/>
    </g>
    <g id="Exchange" transform="translate(60.295 467.94)">
      <g id="ic_exchange" transform="translate(112.705 249.06)">
        <path id="Union_1" data-name="Union 1" d="M2244.667-696.248a1.332,1.332,0,0,1,0-1.885l13.2-13.2a1.332,1.332,0,0,1,1.885,0,1.328,1.328,0,0,1,.39.993c0,.015,0,.03,0,.045v7.333a1.333,1.333,0,0,1-1.333,1.333,1.333,1.333,0,0,1-1.334-1.333v-4.209l-10.923,10.923a1.329,1.329,0,0,1-.942.39A1.331,1.331,0,0,1,2244.667-696.248Zm-4.724-4.724a1.33,1.33,0,0,1-.389-.984c0-.018,0-.036,0-.053v-7.333a1.334,1.334,0,0,1,1.334-1.333,1.333,1.333,0,0,1,1.333,1.333v4.209l10.923-10.923a1.332,1.332,0,0,1,1.885,0,1.332,1.332,0,0,1,0,1.885l-13.2,13.2a1.328,1.328,0,0,1-.942.391A1.329,1.329,0,0,1,2239.943-700.972Z" transform="translate(-2234.552 721.105)" fill="#fff"/>
      </g>
    </g>
  </g>
</svg>
